<svg width="98" height="20" viewBox="0 0 98 20" fill="none" xmlns="http://www.w3.org/2000/svg">
<path d="M86.269 17.5916H77.5664V2.10547H86.2644L86.269 17.5916Z" fill="#FF5F00"/>
<path d="M78.1282 9.84804C78.1288 8.35356 78.4712 6.87901 79.1291 5.53716C79.7871 4.19531 80.7432 3.02172 81.9244 2.10614C80.1691 0.736633 78.0054 -0.00491158 75.779 2.44839e-05C70.2905 2.44839e-05 65.8398 4.40861 65.8398 9.84804C65.8398 12.4602 66.8871 14.9649 68.7501 16.8127C70.6215 18.6628 73.1475 19.6994 75.779 19.6972C78.0044 19.702 80.1672 18.9609 81.922 17.5923C80.7407 16.6766 79.7845 15.5028 79.1265 14.1607C78.4686 12.8187 78.1263 11.3439 78.1259 9.84921" fill="#EB001B"/>
<path d="M97.998 9.84803C97.9973 11.1437 97.7397 12.4263 97.2402 13.6217C96.7406 14.8172 96.0091 15.9017 95.0878 16.8127C93.2161 18.6631 90.6896 19.6997 88.0577 19.6972C85.8331 19.7012 83.6713 18.9601 81.917 17.5923C83.0982 16.6766 84.0543 15.5028 84.7121 14.1607C85.3699 12.8186 85.7119 11.3438 85.712 9.8492C85.7119 8.35459 85.3699 6.87981 84.7121 5.53773C84.0543 4.19564 83.0982 3.02183 81.917 2.10613C83.6718 0.737362 85.8345 -0.00412533 88.06 1.72642e-05C93.5485 1.72642e-05 97.9992 4.4086 97.9992 9.84803" fill="#F79E1B"/>
<path d="M25.2705 19.5378H20.5139L23.4867 0.342985H28.2438L25.2705 19.5378ZM16.5124 0.342985L11.9777 13.5453L11.4411 10.7024L11.4416 10.7034L9.84107 2.07126C9.84107 2.07126 9.64755 0.342985 7.58472 0.342985H0.0879672L0 0.667999C0 0.667999 2.29252 1.16913 4.97552 2.86197L9.10802 19.5383H14.064L21.6316 0.342985H16.5124V0.342985ZM53.9253 19.5378H58.2929L54.4849 0.342472H50.6612C48.8955 0.342472 48.4655 1.77294 48.4655 1.77294L41.3714 19.5378H46.3298L47.3214 16.6866H53.3682L53.9253 19.5378ZM48.6913 12.748L51.1905 5.56478L52.5965 12.748H48.6913ZM41.7433 4.95891L42.4221 0.836923C42.4221 0.836923 40.3275 0 38.144 0C35.7835 0 30.1781 1.08389 30.1781 6.35447C30.1781 11.3134 36.7571 11.375 36.7571 13.9797C36.7571 16.5845 30.8559 16.1177 28.9084 14.4752L28.2013 18.7851C28.2013 18.7851 30.3252 19.869 33.5702 19.869C36.8162 19.869 41.713 18.1032 41.713 13.2973C41.713 8.30661 35.0749 7.84193 35.0749 5.67209C35.0754 3.50173 39.7079 3.78054 41.7433 4.95891V4.95891Z" fill="white"/>
<path d="M11.4242 10.7725L9.82615 2.05413C9.82615 2.05413 9.63291 0.308594 7.57321 0.308594H0.0878338L0 0.636853C0 0.636853 3.59776 1.42924 7.04865 4.3981C10.3483 7.23576 11.4242 10.7725 11.4242 10.7725Z" fill="#FAA61A"/>
</svg>