<svg width="111" height="20" viewBox="0 0 111 20" fill="none" xmlns="http://www.w3.org/2000/svg">
<g clip-path="url(#clip0_2119_3899)">
<path d="M20.3674 8.99338C20.355 8.60716 20.1754 8.4078 19.8267 8.3947H17.9641C17.5232 8.42208 17.2954 8.66726 17.2849 9.12847V12.5248C17.2954 13.0008 17.5473 13.2436 18.0369 13.2573H19.7439C19.9212 13.2573 20.0686 13.1907 20.186 13.0544C20.3087 12.952 20.3674 12.8205 20.3674 12.6575V8.99338ZM14.8933 8.51135C14.9056 7.66153 15.0923 7.01584 15.4545 6.57427C15.6441 6.38919 15.8813 6.23446 16.1701 6.10651C16.4701 5.97023 16.7607 5.90417 17.0424 5.90417H20.4613C21.9694 5.91727 22.736 6.75339 22.7601 8.41434V13.5263C22.749 14.1161 22.5212 14.6279 22.0809 15.0558C21.6448 15.5057 21.1241 15.7348 20.5177 15.7485H17.2849V19.434H14.8933V8.51135Z" fill="white"/>
<path d="M27.0772 12.764C27.0772 12.9062 27.1418 13.0187 27.268 13.1032C27.3807 13.2044 27.5228 13.2573 27.7024 13.2573H29.5392C29.9543 13.2573 30.1697 13.0943 30.182 12.764V12.0689C30.182 11.6892 29.9631 11.4976 29.5216 11.4976H27.7024C27.4629 11.4976 27.2973 11.5381 27.2052 11.6142C27.1201 11.7041 27.0772 11.882 27.0772 12.1457V12.764ZM30.182 8.93328C30.1943 8.56074 29.9801 8.3828 29.5386 8.39471H24.722V5.90417H30.145C31.7247 5.93036 32.5266 6.704 32.5536 8.23165V13.4418C32.5401 14.1006 32.3411 14.6439 31.9549 15.076C31.551 15.5235 31.0303 15.7485 30.3922 15.7485H27.1142C25.5186 15.7348 24.7097 14.9963 24.6851 13.5281V11.5178C24.6974 9.98365 25.4705 9.20406 27.0009 9.17728H30.182V8.93328Z" fill="white"/>
<path d="M39.2703 16.9428C39.4599 16.9309 39.6243 16.8619 39.7576 16.7381C39.8855 16.6227 39.9501 16.49 39.9501 16.3394V15.7485H36.8882C36.489 15.7485 36.1696 15.6967 35.9313 15.5937C35.6795 15.5003 35.4288 15.3259 35.1764 15.0784C34.9375 14.8159 34.7655 14.5416 34.661 14.2547C34.5524 13.9923 34.4972 13.6584 34.4972 13.2573V5.90417H36.8882V12.4682C36.8882 12.9943 37.1001 13.2573 37.5292 13.2573H39.2175C39.4183 13.2573 39.5926 13.1907 39.7388 13.0544C39.8797 12.939 39.9501 12.8021 39.9501 12.6414V5.90417H42.3217V16.7518C42.3082 17.5546 42.1051 18.1973 41.7136 18.6847C41.3161 19.1721 40.7725 19.4215 40.0793 19.434H34.4972V16.9428H39.2703Z" fill="white"/>
<path d="M44.1997 13.2573H48.461C48.8507 13.2437 49.0533 13.0854 49.0656 12.7819V12.5581C49.0656 12.4932 49.0462 12.4212 49.0087 12.3439C48.9136 12.1558 48.7967 12.0624 48.6576 12.0624H46.5449C45.9179 12.0499 45.3832 11.8309 44.9335 11.4083C44.4785 11.0179 44.2455 10.5377 44.232 9.97413V8.11679C44.2566 6.6677 45.0333 5.93036 46.5631 5.90417H51.5053V8.39471H47.318C46.8267 8.39471 46.5789 8.54765 46.5789 8.85235V9.09336C46.5789 9.40937 46.832 9.56767 47.3362 9.56767H49.4425C50.0037 9.58076 50.4821 9.79857 50.8807 10.2235C51.2834 10.6514 51.4924 11.1602 51.5053 11.7511V13.568C51.4924 14.0786 51.2593 14.588 50.8114 15.0962C50.5931 15.3456 50.3694 15.517 50.1457 15.614C49.9144 15.7032 49.6004 15.7485 49.1994 15.7485H44.1997V13.2573Z" fill="white"/>
<path d="M55.5974 12.764C55.5974 12.9062 55.662 13.0187 55.7912 13.1032C55.9027 13.2044 56.0453 13.2573 56.2226 13.2573H58.063C58.478 13.2573 58.6923 13.0943 58.7046 12.764V12.0689C58.7046 11.6892 58.4827 11.4976 58.043 11.4976H56.2226C55.9837 11.4976 55.8188 11.5381 55.7272 11.6142C55.6421 11.7041 55.5974 11.882 55.5974 12.1457V12.764ZM58.7046 8.93328C58.7152 8.56074 58.5009 8.3828 58.0589 8.39471H53.2435V5.90417H58.6682C60.2461 5.93036 61.0486 6.704 61.0733 8.23165V13.4418C61.0603 14.1006 60.8596 14.6439 60.4757 15.076C60.0747 15.5235 59.5534 15.7485 58.9148 15.7485H55.6338C54.0395 15.7348 53.2299 14.9963 53.2076 13.5281V11.5178C53.2182 9.98365 53.9907 9.20406 55.5223 9.17728H58.7046V8.93328Z" fill="white"/>
<path d="M63.0175 4.49196C63.0321 3.81948 63.2763 3.27972 63.7554 2.87505C64.2203 2.46383 64.8308 2.25256 65.5857 2.24066H67.1044V4.64669H66.1845C65.6791 4.65859 65.4214 4.90377 65.4102 5.37748V5.90474H67.1044V8.39766H65.4102V15.7496H63.0175V4.49196Z" fill="white"/>
<path d="M73.9058 8.88686V8.82914C73.9058 8.70119 73.8547 8.59228 73.752 8.51135C73.6405 8.43279 73.5043 8.39471 73.3405 8.39471H71.6757C71.462 8.39471 71.29 8.45541 71.1567 8.57979C70.9912 8.69464 70.9072 8.8458 70.9072 9.03207V10.0319L73.9058 8.88686ZM70.9454 12.4075V12.5629C70.9454 12.7622 70.9965 12.9205 71.1004 13.0354C71.1755 13.1824 71.2765 13.2573 71.4109 13.2573H76.3238V15.7485H71.1004C70.6237 15.7485 70.2521 15.7032 69.9897 15.6128C69.7027 15.517 69.445 15.3605 69.2201 15.1426C68.9571 14.879 68.7781 14.6106 68.6883 14.3345C68.5897 14.0465 68.5409 13.6644 68.5409 13.1883L68.5204 8.20308C68.5468 6.69686 69.3229 5.93036 70.848 5.90417H74.0719C75.5612 5.93036 76.3156 6.72364 76.3396 8.28818V10.2574L70.9454 12.4075Z" fill="white"/>
<path d="M81.4021 15.7484C81.0399 15.7484 80.7094 15.7145 80.4094 15.6526C80.0954 15.6009 79.7825 15.4533 79.4626 15.2039C79.1344 14.9141 78.9072 14.5892 78.7828 14.2303C78.6513 13.8774 78.5879 13.4775 78.5879 13.0276V8.3792C78.5744 8.00012 78.612 7.66745 78.6994 7.37883C78.7798 7.09079 78.9489 6.80871 79.2043 6.53258C79.4954 6.24276 79.7925 6.04995 80.1059 5.95532C80.4077 5.87856 80.7476 5.83987 81.1286 5.83987H84.794V6.42249H81.2137C80.5814 6.42249 80.0848 6.554 79.7214 6.81764C79.3499 7.10508 79.1602 7.6008 79.1602 8.29946V12.9508C79.1602 13.2781 79.2095 13.5965 79.3076 13.9036C79.408 14.2053 79.5753 14.4701 79.8154 14.7016C80.076 14.9022 80.3355 15.0272 80.5885 15.0783C80.8521 15.1373 81.135 15.1652 81.435 15.1652H84.8515V15.7484H81.4021Z" fill="white"/>
<path d="M94.2212 9.7176H89.4157C88.8404 9.7307 88.3896 9.91101 88.065 10.2586C87.7292 10.6115 87.5631 11.0953 87.5631 11.71V13.1936C87.5631 13.4811 87.5924 13.7441 87.6535 13.981C87.7139 14.2303 87.8648 14.4529 88.1031 14.6439C88.5182 14.9926 88.9778 15.1652 89.4803 15.1652H92.392C93.6089 15.1521 94.2212 14.5023 94.2212 13.2121V9.7176ZM94.7923 13.0669C94.7923 13.4412 94.7642 13.7697 94.7166 14.0589C94.6391 14.3731 94.48 14.676 94.2388 14.9641C93.7369 15.5003 93.1146 15.7615 92.372 15.7484H89.5149C88.7723 15.7484 88.1706 15.5235 87.7045 15.076C87.2285 14.6338 86.9872 14.019 86.9872 13.2305V11.732C87.0113 10.0413 87.8419 9.17546 89.4785 9.13618H94.2388V8.48037C94.2388 7.94001 94.0844 7.4669 93.7774 7.05985C93.5825 6.79562 93.3518 6.61887 93.09 6.52782C92.8252 6.4576 92.5282 6.42249 92.1971 6.42249H87.0042V5.83987H91.927C92.3773 5.83987 92.7841 5.87201 93.1528 5.93509C93.3424 5.97318 93.5144 6.04816 93.6735 6.15647C93.8419 6.25943 93.9993 6.40999 94.1448 6.60756C94.5863 7.18482 94.8017 7.85075 94.7923 8.60058V13.0669Z" fill="white"/>
<path d="M100.166 6.42249C98.8335 6.44748 98.1766 7.18482 98.2013 8.6357V15.7484H97.6289V8.63808C97.6019 6.77181 98.4783 5.83987 100.258 5.83987H100.895V6.42249H100.166Z" fill="white"/>
<path d="M109.846 6.42549H105.317C104.99 6.42549 104.698 6.46238 104.434 6.5326C104.158 6.59569 103.892 6.76529 103.642 7.04142C103.403 7.29315 103.253 7.5425 103.19 7.79185C103.106 8.04359 103.068 8.34531 103.082 8.69702V13.2317C103.082 13.9857 103.297 14.4987 103.734 14.7743C103.949 14.9022 104.186 14.998 104.451 15.0623C104.715 15.1337 105.01 15.1688 105.335 15.1688H107.315C108.055 15.1688 108.66 14.9962 109.125 14.6481C109.593 14.3214 109.83 13.7578 109.846 12.9544V6.42549ZM110.418 12.9943C110.367 14.8713 109.388 15.7913 107.479 15.7526H105.356C104.907 15.7526 104.507 15.7128 104.152 15.6372C103.787 15.5414 103.438 15.3158 103.101 14.9641C102.848 14.6481 102.686 14.3285 102.62 14.0012C102.533 13.6745 102.495 13.3109 102.508 12.914V8.68214C102.533 6.776 103.48 5.82859 105.351 5.84287H109.846V2.62988H110.418V12.9943Z" fill="white"/>
<path d="M1.6088 5.52984C1.79665 5.44593 1.9845 5.38047 2.17235 5.33941C2.51752 3.66834 3.97747 2.41504 5.7274 2.41504C7.47852 2.41504 8.93905 3.67013 9.28364 5.3406C9.82077 5.44415 10.2652 5.66434 10.6115 5.99224C10.6256 5.67148 10.6127 5.36262 10.5751 5.07161C10.3538 2.54716 8.26572 0.56604 5.71977 0.56604C3.09868 0.56604 0.964825 2.67213 0.853876 5.30489C0.838614 5.53222 0.833918 5.76908 0.842136 6.01664C1.06227 5.82859 1.31352 5.65958 1.6088 5.52984Z" fill="#E3001B"/>
<path d="M8.57281 5.90417H2.73186C2.45067 5.90417 2.1595 5.97023 1.85953 6.10651C1.57013 6.23446 1.33297 6.38919 1.14277 6.57427C0.78057 7.01584 0.595068 7.66153 0.582153 8.51135V13.1401C0.595068 13.9917 0.78057 14.6368 1.14277 15.076C1.33297 15.2641 1.57013 15.4188 1.85953 15.5479C2.1595 15.6812 2.45067 15.7485 2.73186 15.7485H8.57281C10.0815 15.7348 10.8487 14.8957 10.8728 13.2371V8.41435C10.8487 6.7534 10.0815 5.91727 8.57281 5.90417Z" fill="#E3001B"/>
</g>
<defs>
<clipPath id="clip0_2119_3899">
<rect width="111" height="20" fill="white"/>
</clipPath>
</defs>
</svg>
