<svg width="84" height="29" viewBox="0 0 84 29" fill="none" xmlns="http://www.w3.org/2000/svg">
<path d="M17.5867 16.33L24.5319 16.316L24.2799 17.8983L18.4689 23.4292H23.3417L23.0617 25.1235H15.8925L16.1865 23.3732L21.7455 18.0383H17.3067L17.5867 16.33Z" fill="#D13239"/>
<path d="M10.0117 13.629C9.85769 13.475 9.64765 13.349 9.40961 13.2509C9.15757 13.1529 8.87752 13.0829 8.59747 13.0269C8.24741 12.9709 7.91136 12.9429 7.67331 12.9289C7.44928 12.9149 7.30925 12.9149 7.30925 12.9149H4.27073H2.01634L0 25.125H1.89032L2.63245 20.6022L6.30108 20.6162C6.30108 20.6162 7.72932 20.6722 8.7375 20.1401C9.74567 19.608 10.0257 18.3898 10.0257 18.3898C10.0257 18.3898 10.1377 17.9417 10.2358 17.3817C10.3338 16.7795 10.4458 16.0514 10.4878 15.6594C10.5158 15.4913 10.5298 15.3793 10.5298 15.3793C10.5298 15.3793 10.5578 15.2533 10.5578 15.0573C10.5578 14.7912 10.5158 14.3851 10.3058 13.9931C10.2077 13.867 10.1237 13.741 10.0117 13.629ZM8.55546 15.7854C8.55546 15.8134 8.38744 16.7936 8.1634 17.9557C8.07938 18.4038 7.74333 18.6419 7.35126 18.7259C6.70715 18.8659 6.00703 18.8379 6.00703 18.8379L2.9405 18.8239L3.61262 14.7632L6.38509 14.7772C6.38509 14.7772 6.56712 14.7772 6.83317 14.7772C7.12722 14.7772 7.51929 14.7912 7.85534 14.8332C8.13539 14.8752 8.35943 14.9312 8.42944 15.0152C8.52746 15.1273 8.55547 15.2813 8.56947 15.4213C8.58347 15.6033 8.55546 15.7714 8.55546 15.7854Z" fill="#D13239"/>
<path d="M33.9281 12.9149H35.7484L33.718 25.125H31.8977L33.9281 12.9149Z" fill="#D13239"/>
<path d="M43.6313 16.33L45.3816 16.316L45.9978 22.5191L48.6722 16.316H50.8286L51.4587 22.5471L54.1331 16.316H55.9535L52.1028 25.1235H49.9604L49.3443 18.9625L46.6279 25.1235H44.5275L43.6313 16.33Z" fill="#D13239"/>
<path d="M30.5825 16.4043C30.0784 16.2363 29.1963 16.2083 28.4402 16.2083C27.712 16.2223 27.39 16.2503 27.1099 16.3063C27.1099 16.3063 25.8217 16.4883 25.0936 17.3985C24.3655 18.3086 24.1414 20.2829 24.1414 20.2829C24.1414 20.2829 23.7074 22.4673 23.8334 23.1954C23.9594 23.9236 24.1834 24.5957 25.0096 24.9177C25.8357 25.2398 26.5358 25.2258 26.5358 25.2258C26.5358 25.2258 28.0061 25.3378 29.1123 25.0858C30.2185 24.8337 30.8066 24.0496 30.8066 24.0496C30.8066 24.0496 31.0726 23.7135 31.2546 23.3075C31.4367 22.9014 31.4927 22.6353 31.5067 22.5933L31.6187 22.1173H29.7284C29.7284 22.1173 29.6304 23.3635 28.6082 23.4755C27.586 23.5875 27.0539 23.5455 26.8439 23.5315C26.6479 23.5175 25.5557 23.5735 25.6397 22.6634C25.6397 22.6494 25.6397 22.6353 25.6397 22.6073C25.6817 21.5712 25.8077 21.3051 25.8077 21.3051L31.7307 21.2911L31.9828 19.8209C32.3048 18.1546 32.0948 16.8944 30.5825 16.4043ZM30.1765 19.6108H26.1158L26.2698 18.9667C26.2698 18.9667 26.4098 18.4626 26.6899 18.2526C26.9699 18.0426 27.334 18.0006 27.67 17.9726C28.0061 17.9445 28.9022 17.8745 29.6444 18.0286C29.8824 18.0706 30.1205 18.2106 30.1765 18.4206C30.3305 18.8827 30.1765 19.6108 30.1765 19.6108Z" fill="#D13239"/>
<path d="M25.6812 22.6189C25.6812 22.6329 25.6812 22.6469 25.6812 22.6609C25.6671 22.7309 25.6812 22.6189 25.6812 22.6189Z" fill="#D13239"/>
<path d="M41.7401 16.4043C41.236 16.2363 40.3539 16.2083 39.5978 16.2083C38.8696 16.2223 38.5476 16.2503 38.2675 16.3063C38.2675 16.3063 36.9793 16.4883 36.2512 17.3985C35.5231 18.3086 35.299 20.2829 35.299 20.2829C35.299 20.2829 34.8649 22.4673 34.991 23.1954C35.117 23.9236 35.341 24.5957 36.1672 24.9177C36.9933 25.2398 37.6934 25.2258 37.6934 25.2258C37.6934 25.2258 39.1637 25.3378 40.2699 25.0858C41.3761 24.8197 41.9642 24.0496 41.9642 24.0496C41.9642 24.0496 42.2302 23.7135 42.4122 23.3075C42.5943 22.9014 42.6503 22.6353 42.6643 22.5933L42.7763 22.1173H40.886C40.886 22.1173 40.788 23.3635 39.7658 23.4755C38.7436 23.5875 38.2115 23.5455 38.0015 23.5455C37.8054 23.5315 36.7133 23.5875 36.7973 22.6774C36.7973 22.6634 36.7973 22.6494 36.7973 22.6213C36.8393 21.5852 36.9653 21.3191 36.9653 21.3191L42.8883 21.3051L43.1404 19.8349C43.4624 18.1686 43.2664 16.8944 41.7401 16.4043ZM41.3341 19.6108H37.2734L37.4274 18.9667C37.4274 18.9667 37.5674 18.4626 37.8475 18.2526C38.1275 18.0426 38.4916 18.0006 38.8276 17.9726C39.1637 17.9445 40.0598 17.8745 40.802 18.0286C41.04 18.0706 41.278 18.2106 41.3341 18.4206C41.4881 18.8827 41.3341 19.6108 41.3341 19.6108Z" fill="#D13239"/>
<path d="M58.0406 16.3313L59.2028 22.7724L62.4934 16.3313L64.3417 16.3453L59.5949 25.5448C59.5949 25.5448 58.7408 27.2111 58.2087 27.6312C57.6766 28.0513 57.3545 28.2473 56.9204 28.2893C56.4864 28.3313 56.3043 28.3593 55.8983 28.2893L55.4502 28.2053L55.7302 26.567C55.7302 26.567 56.4724 26.707 56.9064 26.525C57.3405 26.357 57.6906 25.6008 57.6906 25.6008L57.9146 25.2228L56.1923 16.3033L58.0406 16.3313Z" fill="#D13239"/>
<path d="M65.0268 17.1994H66.9311L67.0431 16.4573C67.0431 16.4573 67.2531 15.1131 67.7012 14.861C67.8412 14.777 68.0793 14.707 68.3593 14.651C68.8634 14.567 69.4935 14.553 70.0116 14.567C70.8098 14.595 71.1038 14.609 71.9159 14.693C72.7281 14.791 72.518 15.5611 72.518 15.5611L72.364 16.7233C72.364 16.7233 72.294 17.2414 72.112 17.5635C71.9439 17.8575 71.4959 18.0536 71.2298 18.1376C70.5997 18.3476 68.4433 18.8937 68.4433 18.8937L66.7491 19.3838C66.7491 19.3838 65.7129 19.6919 65.1248 20.322C64.5367 20.9661 64.3126 21.6942 64.2286 22.0863C64.1446 22.4643 63.6965 25.1108 63.6965 25.1108H72.8401L73.1482 23.2905L65.9229 23.3045L66.0489 22.5623C66.0489 22.5623 66.133 21.7922 66.441 21.5402C66.539 21.4562 66.581 21.3581 67.1691 21.1481C67.5192 21.0221 68.6954 20.714 68.6954 20.714L71.4259 19.9719C71.4259 19.9719 72.9101 19.5938 73.4982 18.7677C74.0863 17.9556 74.3103 16.4013 74.3103 16.4013C74.3103 16.4013 74.4644 14.889 74.3524 14.4129C74.2263 13.9369 73.7783 13.3768 73.2462 13.1247C72.7001 12.8867 72.14 12.7327 70.4877 12.7607C68.8494 12.7887 68.0233 12.8587 67.1971 13.1667C66.357 13.4748 65.8809 14.0349 65.5729 14.819C65.2228 15.5891 65.0268 17.1994 65.0268 17.1994Z" fill="white"/>
<path d="M82.2361 20.6052L83.5243 12.9319H81.2559L74.1847 20.5212L73.8627 22.4395H80.0377L79.5897 25.142H81.494L81.9421 22.4395H83.6924L84.0004 20.6052H82.2361ZM80.3598 20.6052H76.3691L81.2279 15.4243L80.3598 20.6052Z" fill="white"/>
<path d="M14.0164 13.9234H19.8414C19.8414 13.9234 21.1436 12.8732 22.0677 12.1871C22.9919 11.515 24.6862 10.4368 24.6862 10.4368L21.3956 8.89655C21.3956 8.89655 18.6091 10.6188 17.4329 11.431C16.2847 12.1871 14.0164 13.9234 14.0164 13.9234Z" fill="white"/>
<path d="M26.5209 9.35685L23.8185 7.53654C23.8185 7.53654 26.2549 6.1503 29.5175 4.84808C32.766 3.55986 34.5023 3.01376 34.5023 3.01376L35.0484 5.5902C35.0484 5.5902 31.9259 6.64038 30.1336 7.48053C28.2852 8.27867 26.5209 9.35685 26.5209 9.35685Z" fill="white"/>
<path d="M37.0498 5.031L36.5737 2.39855C36.5737 2.39855 39.9063 1.5164 42.9588 0.942302C46.0113 0.368203 50.058 0.102158 50.058 0.102158L48.7138 4.17686C48.7138 4.17686 45.1572 3.68677 41.8106 4.14885C39.2202 4.4569 37.0498 5.031 37.0498 5.031Z" fill="white"/>
<path d="M50.8434 4.52794L53.0978 0.00516293C53.0978 0.00516293 58.0266 -0.0928538 62.2833 0.565259C66.5401 1.22337 70.4327 2.23154 70.3487 2.27355L59.5529 7.91652C59.5529 7.91652 57.0324 6.32025 53.8959 5.34008C52.1316 4.82199 50.8434 4.52794 50.8434 4.52794Z" fill="white"/>
<path d="M61.499 9.14939L63.8654 10.9557H83.3568C83.3568 10.9557 83.3148 10.3256 82.7967 9.42944C82.4746 8.86934 81.8865 8.28124 81.2704 7.66513C81.0464 7.4411 80.1502 6.74098 79.4781 6.3069C77.7558 5.18671 76.7896 4.75264 75.0113 3.9545L61.499 9.14939Z" fill="white"/>
<path d="M15.2763 16.316C14.5481 16.316 13.848 16.6101 13.2599 16.9321L13.3579 16.316H11.4256L9.87134 25.0815H11.8177L12.6718 20.2227C12.8538 19.2425 13.582 18.0243 15.0242 18.0243H16.0324L16.3404 16.316H15.2763Z" fill="#D13239"/>
</svg>
