<svg width="53" height="18" viewBox="0 0 53 18" fill="none" xmlns="http://www.w3.org/2000/svg">
<g clip-path="url(#clip0_2311_870)">
<path fill-rule="evenodd" clip-rule="evenodd" d="M37.4383 4.37783C38.6159 4.37783 39.5705 3.42583 39.5705 2.25189C39.5705 1.07726 38.6159 0.124344 37.4383 0.124344C36.262 0.124344 35.3079 1.07726 35.3079 2.25189C35.3079 3.42583 36.262 4.37783 37.4383 4.37783ZM21.1082 5.52594C21.012 5.76709 20.3195 7.71886 18.6447 9.74172V1.09234L14.1824 1.97234V17.6503H18.6447V12.8041C19.9372 14.7383 20.5754 17.6503 20.5754 17.6503H25.9204C25.3917 15.4571 23.0789 11.4133 23.0789 11.4133C25.1546 8.78743 26.0663 5.98949 26.2113 5.52594H21.1082ZM32.8396 5.36229C28.8427 5.49029 26.8138 7.27955 26.8138 10.8363V17.6503H31.1742V12.0937C31.1742 9.96389 31.4537 9.05097 33.9866 8.96389V5.42469C33.5603 5.3344 32.8396 5.36229 32.8396 5.36229ZM6.69847 7.25234C6.1519 7.21646 4.88649 7.13486 4.88649 5.99817C4.88649 4.62652 6.70832 4.62652 7.39165 4.62652C8.59315 4.62652 10.1493 4.9808 11.2605 5.31246C11.2605 5.31246 11.8804 5.53052 12.4079 5.75383L12.457 5.76709V2.01052L12.3896 1.99063C11.0782 1.5328 9.5532 1.09234 6.72596 1.09234C1.85125 1.09234 0.124023 3.92594 0.124023 6.35337C0.124023 7.75269 0.725116 11.0459 6.3079 11.4258C6.78117 11.4549 8.03719 11.5271 8.03719 12.7017C8.03719 13.6715 7.00887 14.2434 5.27935 14.2434C3.38399 14.2434 1.54543 13.7611 0.428693 13.3038V17.1728C2.10048 17.6101 3.98508 17.8286 6.19382 17.8286C10.9602 17.8286 13.0949 15.1477 13.0949 12.4905C13.0949 9.47772 10.7061 7.52023 6.69847 7.25234ZM35.2767 17.6503H39.6019V5.53966H35.2767V17.6503ZM47.7459 1.86446V17.6503H52.0718V1.09234L47.7459 1.86446ZM41.434 1.86446L45.7557 1.09234V17.6503H41.434V1.86446Z" fill="url(#paint0_linear_2311_870)"/>
</g>
<defs>
<linearGradient id="paint0_linear_2311_870" x1="14.1728" y1="0.124344" x2="18.0596" y2="21.9645" gradientUnits="userSpaceOnUse">
<stop stop-color="#AD319B"/>
<stop offset="1" stop-color="#8E3AAE"/>
</linearGradient>
<clipPath id="clip0_2311_870">
<rect width="52" height="17.8286" fill="white" transform="translate(0.124023)"/>
</clipPath>
</defs>
</svg>
