<svg width="94" height="18" viewBox="0 0 94 18" fill="none" xmlns="http://www.w3.org/2000/svg">
<path d="M72.2186 5.51007C71.7334 6.82905 70.8623 7.64502 69.205 7.64502H69.1989L68.3415 7.64365L69.8069 3.65213H70.6408C72.1664 3.65318 72.7361 4.10334 72.2186 5.51007ZM76.6164 1.86387C75.8713 0.77986 74.3543 0.247514 71.9782 0.245222H66.4773L60.5273 16.7502H65.5816L67.7442 10.9403C67.8498 11.1786 69.1263 16.7502 69.1263 16.7502H74.4388C74.4388 16.7502 73.4726 12.6561 72.7619 11.0024C72.579 10.5779 72.3886 10.101 72.1345 9.70355C73.635 9.1401 75.8093 7.93133 76.7094 5.48027C77.2631 3.97381 77.2308 2.75771 76.6164 1.86387ZM25.8339 0.235596H16.4643C14.9868 0.235596 13.5526 0.235595 12.2665 0.89407C10.9806 1.55353 9.84613 2.87251 8.97207 5.50974C8.78269 6.07745 8.68223 6.56573 8.66959 6.98923C8.65656 7.41575 8.72945 7.77685 8.88865 8.09132C9.08524 8.47402 9.40396 8.83558 9.80245 9.1399C10.2013 9.4433 10.6791 9.69163 11.1935 9.84978C11.2137 9.85509 11.4839 9.93328 11.8113 10.0271C12.1285 10.1196 12.4452 10.2137 12.7614 10.3094C12.9026 10.3531 13.0588 10.4099 13.2 10.4953C13.341 10.5798 13.4671 10.6932 13.5471 10.8514C13.5994 10.9577 13.6279 11.0741 13.6305 11.1925C13.6339 11.3153 13.6134 11.4478 13.5652 11.587C13.4456 11.9461 13.2637 12.1758 12.9176 12.3179C12.5723 12.4581 12.0626 12.504 11.2905 12.5105H1.64857L0.124023 16.7392H10.4451C11.4156 16.7392 13.1913 16.7392 14.8974 16.007C16.6035 15.2748 18.24 13.8114 18.9325 10.8834C19.1935 9.7824 19.1132 8.88666 18.6856 8.18234C18.2581 7.47751 17.483 6.96788 16.3563 6.64077C16.3563 6.64077 16.104 6.56677 15.8071 6.48033C15.5108 6.3948 15.1697 6.29631 14.9945 6.2453C14.7059 6.16187 14.4845 5.99291 14.3534 5.77811C14.2226 5.56416 14.1831 5.30346 14.2579 5.03712C14.3348 4.76155 14.522 4.54027 14.7923 4.38841C15.064 4.23687 15.4208 4.15337 15.8368 4.15337H21.8358C21.8776 4.09096 21.9159 4.02495 21.9586 3.96287C23.0547 2.3972 24.3811 1.13035 25.8339 0.235596Z" fill="#EE7F00"/>
<path d="M30.235 8.41158C28.835 12.2825 27.8182 13.2572 26.2885 13.2572H26.2855C24.795 13.255 24.2725 12.3028 25.6675 8.45035C26.7085 5.57382 28.0578 3.73382 29.689 3.73382H29.69C31.2423 3.73618 31.598 4.64436 30.235 8.41158ZM35.0401 1.78184C34.2233 0.602025 32.8262 0.00196462 30.882 0C29.6095 0 28.3752 0.29502 27.2173 0.846751C25.5626 1.63771 24.0619 2.958 22.8367 4.70978C22.0416 5.84723 21.3608 7.16418 20.8263 8.63836C19.8202 11.4208 19.832 13.6786 20.8604 15.1664C21.4442 16.0068 22.655 17.0118 25.119 17.0137H25.1286C29.6173 17.0137 32.9694 14.042 35.0914 8.18087C35.6515 6.62882 36.3914 3.7352 35.0401 1.78184ZM52.9784 0.235624H43.4295C40.76 0.235624 38.7731 1.59966 37.8342 4.1534L33.2988 16.7392H38.2673L40.5977 10.2686L44.9888 10.2722L46.2376 6.80734L41.861 6.80433L42.5654 4.79779C42.7131 4.43873 43.0636 4.15235 43.5778 4.15235C43.8634 4.15235 47.0861 4.15333 48.755 4.15438C48.7977 4.0923 48.8362 4.02491 48.879 3.96283C49.9743 2.39723 51.5255 1.13038 52.9784 0.235624ZM57.3214 8.41158C55.9223 12.2825 54.9055 13.2572 53.3759 13.2572H53.3727C51.8814 13.255 51.3609 12.3028 52.7549 8.45035C53.7948 5.57382 55.145 3.73382 56.7762 3.73382H56.7783C58.3296 3.73618 58.6854 4.64436 57.3214 8.41158ZM62.1275 1.78184C61.3096 0.602025 59.9136 0.00196462 57.968 0C56.697 0 55.4626 0.29502 54.3056 0.846751C52.65 1.63771 51.1502 2.958 49.9241 4.70978C49.1278 5.84723 48.4477 7.16418 47.9136 8.63836C46.9074 11.4208 46.9194 13.6786 47.9489 15.1664C48.531 16.0068 49.7424 17.0118 52.2084 17.0137H52.215C56.7056 17.0137 60.0578 14.042 62.1777 8.18087C62.7399 6.62882 63.4788 3.7352 62.1275 1.78184Z" fill="#EE7F00"/>
<path d="M76.8428 0.244972C77.1624 0.500569 77.4383 0.791922 77.6682 1.12571C78.2551 1.98111 78.4806 2.99838 78.347 4.1638H81.3561L76.8193 16.753H81.3518L85.8897 4.1638H91.7116L93.1239 0.245038H76.8428V0.244972Z" fill="#EE7F00"/>
</svg>
