<svg width="45" height="33" viewBox="0 0 45 33" fill="none" xmlns="http://www.w3.org/2000/svg"><path d="M0 7.57426L0.891089 6.23762H4.0099V1.78218L3.56436 0.891089L4.45545 0L5.79208 0.445545L6.23762 1.33663L5.79208 2.22772V6.23762L8.91089 6.68317L9.80198 7.57426L8.91089 8.46535H8.0198L7.57426 7.57426L6.68317 8.0198V15.5941L7.57426 16.4851L6.68317 17.3762V25.8416L7.12871 27.6238L4.90099 31.1881L2.67327 27.6238L3.11881 25.396V16.9307L2.22772 16.4851L3.11881 15.5941V8.0198L2.67327 7.57426L1.78218 8.46535H0.891089L0 7.57426ZM9.80198 6.23762L10.2475 7.57426V8.46535L12.4752 9.35644L13.3663 12.0297L12.9208 15.5941L11.1386 17.3762L9.35644 17.8218L10.2475 20.0495L13.8119 24.0594L19.1584 27.6238L24.9505 30.297L35.6436 32.0792L38.3168 30.7426L30.297 29.8515L24.9505 27.6238L19.604 24.0594L13.8119 17.8218L16.4851 14.2574L17.3762 10.6931L15.1485 7.57426L9.80198 6.23762ZM23.1683 6.68317L19.1584 8.0198L18.2673 11.1386L19.604 14.703L24.505 17.3762L27.1782 20.0495V23.1683L25.396 25.396L21.5733 25.4673L17.3762 21.8317L18.7129 18.7129L21.8317 18.2673L18.7129 16.4851L16.4851 19.1584V22.7228L19.1584 25.8416L23.6139 27.1782L27.6238 25.8416L30.297 23.6139L30.7426 18.7129L28.5149 16.0396L21.8317 11.5842L20.9406 9.80198L22.2772 7.57426H24.9505L27.1782 8.46535L28.0693 12.0297V6.68317H23.1683Z" fill="#C5C5C5"/><path d="M8.91089 6.68317L9.80198 7.57426H8.91089L7.6901 7.0797L8.91089 6.68317ZM4.90099 16.4851H7.57426L6.68317 15.5941L4.90099 15.7901V16.4851ZM0 7.57426L1.78218 7.12871L0.891089 8.46535L0 7.57426ZM5.79208 0.445545L4.90099 1.33663L4.45545 0L5.79208 0.445545ZM17.3762 10.6931L15.1485 11.1386L14.2574 8.91089L15.1485 7.57426L17.3762 10.6931ZM15.8658 20.0495L15.5941 22.7228L12.0297 19.1584L12.9208 17.3762L13.8119 17.8218L15.8658 20.0495ZM24.9505 30.297L22.4198 29.1475L24.0594 28.5149L29.4059 30.297L35.6436 31.1881V32.0792L24.9505 30.297ZM26.2871 17.3762L25.396 18.2673L24.5049 17.3762L19.604 14.703L20.9406 13.8119L26.2871 17.3762ZM28.9604 16.9307L30.7426 18.7129L30.5554 20.152L28.9604 20.0495L27.6238 17.3762L21.3861 13.3663L20.0495 12.0297V9.80198L20.9406 8.0198V9.80198L21.3861 11.5842L28.9604 16.9307ZM24.9505 7.57426L22.7228 7.12871H24.9505L27.1782 7.57426L28.0693 6.68317V9.80198L27.1782 8.46535L24.9505 7.57426Z" fill="#F5F5F5"/><path d="M17.3764 10.693L16.4853 14.2574L13.812 17.8217L16.0397 14.2574L16.4853 12.0297V10.2475L17.3764 10.693ZM6.6833 25.699V17.3762L7.57439 16.4851L6.6833 15.594V8.01975L7.12885 7.57421V7.12866L6.23776 7.57421V15.594L6.6833 16.4851L6.23776 16.9306V24.9504L6.6833 27.6237L4.90112 30.3549V31.1881L7.12885 27.6237L6.6833 25.699ZM16.0397 24.0594L19.1585 26.7326L24.0595 28.0693L24.9506 27.6237L24.0595 27.0222L23.614 27.1782L19.1585 25.8415L16.4853 22.7227V20.6821L16.0397 24.0594ZM29.8516 23.6138L28.0694 24.9504L25.8417 25.8415L23.614 27.1782L27.6239 25.8415L30.2972 23.6138L30.7427 18.7128L29.8516 23.6138Z" fill="#9E9E9E"/><path d="M8.91089 6.6832L4.90099 8.01984V31.1882L2.67327 27.6238L3.11881 25.3961V17.0154L4.0099 16.4852H2.22772L3.11881 15.5941V8.01984L2.67327 7.57429L1.78218 7.12875L0 7.57429L0.891089 6.23766H4.0099V2.22776L4.90099 1.78221V1.33667H6.23762L4.90099 2.22776V6.23766H5.79208L8.91089 6.6832ZM8.91089 7.57429V8.46538L9.80198 7.57429H8.91089ZM9.35644 17.8218L12.0297 19.1585L12.9208 16.9307L14.2574 15.5941L15.1485 12.9208L14.8901 10.6931L13.8119 9.35647L13.0767 11.2411L13.3663 12.0297L12.9208 15.5941L11.1386 17.3763L9.35644 17.8218ZM10.2475 7.57429L10.2743 7.83271L12.0297 7.57429L9.80198 6.23766L10.2475 7.57429ZM19.1584 8.01984L18.2673 11.1386L18.998 13.2505L19.1584 12.4753L19.604 11.1386V9.35647L21.4129 7.27132L19.1584 8.01984ZM27.1782 23.1684L25.396 25.3961L21.8317 26.2872L24.9505 25.8416L27.1782 24.9505L28.5149 23.1684L28.9604 20.9406L26.7327 17.8218L27.1782 20.0495V23.1684ZM16.4851 19.1585L16.9307 21.8317V20.0495L17.8218 18.7129L19.1584 17.3763L18.7129 16.4852L16.4851 19.1585Z" fill="#AAAAAA"/><path d="M4.02338 2.73126L4.9011 3.11888L5.79219 2.67334V6.2377L4.9011 6.68324L4.01001 6.2377L4.02338 2.73126Z" fill="#4D4D4D"/><path d="M31.1879 10.6932L33.4157 5.34664V7.12882L36.5345 4.45555L36.98 4.9011L39.2077 4.45555L40.0988 4.01001L41.881 6.23773L42.7721 8.01991L43.2176 7.12882L43.6632 8.46546V11.5843L42.7721 12.9209L40.5444 15.1486L43.2176 16.9308L43.6632 17.3763L44.9998 20.4952H44.1087L44.9998 22.2773L44.5543 25.3961L42.3266 27.1783L41.881 26.2872L39.6533 28.515H36.5345L32.9701 27.1783L32.5246 27.6239L29.4058 23.614L33.8612 24.5051L32.9701 24.9506L34.3068 25.8417H36.98L39.6533 24.9506L40.9899 23.1684V23.614L41.881 22.7229L41.4355 19.1585L39.6533 17.3763L36.0889 15.5942L38.3167 13.812L39.6533 11.5843V8.46546H36.5345V8.01991L34.7523 8.46546L31.1879 10.6932Z" fill="#F4342C"/><path d="M31.6338 10.2474L32.9704 6.68307L33.4159 7.57416L36.0892 5.34644H40.0991L42.3268 8.46525L42.7724 11.5841L39.6536 15.1484L42.7724 16.4851H41.8813L44.5546 20.495L44.109 24.0593L42.3268 26.7326V25.3959L39.208 28.0692L33.8615 27.6237L32.5249 26.287V27.1781L30.7427 24.5049L34.7526 25.3959L33.4159 25.8415L35.6437 26.7326L38.3169 26.287L40.5447 24.9504L42.3268 23.6138L42.7724 21.8316L41.8813 22.2771L42.3268 20.0494L40.9902 17.8217L38.3169 16.0395L36.5348 15.1484L38.7625 13.8118L40.5447 12.0296L40.9902 8.91079L39.6536 7.57416L36.9803 8.0197L37.8714 7.12861L35.1981 7.57416L33.8615 8.0197H34.7526L31.6338 10.2474Z" fill="#FB951D"/><path d="M33.6386 8.59453L36.8732 7.87274L39.9118 7.00393L41.3777 11.3524L38.5886 14.8455L38.6643 15.7277L40.3529 17.902L41.9435 20.1297L43.4539 22.3975L40.5668 24.4203L37.8311 26.7549L35.0999 25.9084L32.4935 24.75L31.8519 25.748L35.149 26.0198L38.4193 26.1846L41.5826 26.1579L42.7499 22.6336L43.8103 19.0336L41.449 17.0421L39.141 14.8678L39.1232 15.6119L40.8965 12.1678L42.6386 8.67027L40.1925 7.00839L37.5861 5.7876L35.3272 6.98166L33.1128 8.27374L33.7277 8.71928L33.741 8.75047L33.6386 8.59453Z" fill="#F4342C"/><path d="M33.1173 8.63023L36.1915 6.91934L39.493 7.03073L41.039 8.86191L41.0034 11.3436L38.1876 14.8367L38.3168 15.6476L40.8876 17.1713L42.7054 19.506L42.9014 22.3753L40.9767 25.5431L37.3633 26.7773L34.6187 26.0466L32.1326 24.7812L31.344 25.7614L34.5341 27.2406L37.9871 27.2896L41.2084 26.2382L43.0395 24.2421L43.8727 21.6891L43.5074 18.9981L41.4088 16.5877L38.6866 14.8723L38.7623 15.701L40.892 13.901L41.9613 11.3525L42.0861 8.69706L40.1613 6.34904L37.1539 5.74756L34.6455 6.54508L32.5425 8.15795L33.4158 8.85746L33.1173 8.63023Z" fill="#F9F506"/><path d="M38.5754 27.0135L36.214 26.4922L36.5393 26.4432L36.5838 26.8888L37.3412 25.9308L37.27 26.8219L38.4417 26.4343H38.5398L38.3526 26.7417L38.5754 27.0135ZM38.6912 14.3734L40.919 16.4407L38.2813 15.1754L38.6912 14.3734ZM42.1353 20.7625L42.6254 18.2853L41.8724 18.7754L42.1754 17.0779L41.3912 17.8219L40.1081 16.5432L42.4962 20.6823L42.1353 20.7625ZM37.2031 6.3447L35.8665 5.25757L36.3789 6.14866L35.4878 7.09767L37.2031 5.64965V6.3447ZM39.8274 25.365L39.7338 25.0665L39.4531 25.512L41.7477 26.1402L39.9299 25.9932L39.8274 25.365ZM39.4308 7.83282L40.5982 10.2922L41.5205 9.43232L39.7962 13.3665L40.3531 12.2615L41.017 11.3704L41.5115 10.4214L40.9591 10.6175L41.2041 10.1051L41.7566 11.5175L41.4581 9.57044L41.0927 9.615L41.1195 8.56351L41.1863 8.21153L40.714 8.65707L39.6269 6.21549L41.7566 10.6709L39.6581 6.68331L39.1635 8.13133L39.4308 7.83282ZM42.2912 16.7036L44.3808 19.3011L41.7388 17.3764L42.2912 16.7036ZM39.5734 27.1249L38.9274 28.5462L39.9343 26.9779L39.1412 26.461L39.3106 26.7105L39.5734 27.1249ZM41.32 16.5298L41.1328 17.519L40.6205 16.5165L41.32 16.5298ZM44.7061 23.6586L43.3695 23.9615L44.4521 24.2066L44.4922 25.962L44.6972 23.2219L44.0021 23.1685L44.7061 23.6586ZM36.4412 6.72787L37.7289 8.12688L37.6487 7.01747L38.7002 6.60757L36.312 7.36499L36.4412 6.72787ZM42.6388 23.1105L41.7477 22.4289L42.514 23.0927L42.2601 23.9838L42.3224 21.8541L42.5051 23.7343L43.2269 21.8318L42.9506 21.0699L42.3224 22.7586L42.6388 23.1105ZM32.3912 25.4496L30.3907 24.5586L32.8323 25.7348L32.9794 24.9996L32.8457 25.1556L32.3912 25.4496Z" fill="#F4342C"/></svg>