<svg width="108" height="32" viewBox="0 0 108 32" fill="none" xmlns="http://www.w3.org/2000/svg">
<path fill-rule="evenodd" clip-rule="evenodd" d="M16.6772 0.14577C17.0766 -0.0485891 17.5388 -0.0485906 17.9382 0.145769L33.7619 7.84685C34.3263 8.12153 34.5939 8.63328 34.6141 9.1527C34.6155 9.17878 34.6161 9.20504 34.6161 9.23145C34.6161 9.38358 34.594 9.53056 34.5529 9.66934C34.3843 10.2694 33.8818 10.7692 33.1314 10.7692H33.1238C33.1085 10.7697 33.0931 10.7699 33.0777 10.7699L32.3081 10.7699C32.3081 11.6195 31.6193 12.3083 30.7696 12.3083H26.9234C26.0738 12.3083 25.385 11.6196 25.385 10.7699H20.7698C20.7698 11.6196 20.081 12.3083 19.2314 12.3083H15.3852C14.5355 12.3083 13.8468 11.6196 13.8467 10.7699H9.23157C9.23155 11.6196 8.54277 12.3083 7.69311 12.3083H3.84695C2.99729 12.3083 2.30851 11.6196 2.30849 10.7699H1.53919C1.52373 10.7699 1.50833 10.7697 1.49298 10.7692H1.484C0.67694 10.7692 0.156544 10.1911 0.0300407 9.53183C0.016641 9.46413 0.00768385 9.39483 0.00348476 9.32425C-0.0338181 8.74885 0.226958 8.15178 0.853514 7.84684L16.6772 0.14577ZM17.0692 3.12918C17.2201 3.05976 17.3947 3.05976 17.5456 3.12918L23.5234 5.87956C24.0647 6.12861 23.8834 6.92327 23.2853 6.92327H11.3296C10.7315 6.92327 10.5501 6.12861 11.0914 5.87956L17.0692 3.12918ZM13.8463 26.9229H9.23113C9.23037 26.074 8.54204 25.386 7.69299 25.3858V12.3085H3.84684V25.3858H3.84652C2.99732 25.3858 2.30882 26.0739 2.30806 26.9229H1.5389C0.689233 26.9229 0.000441 27.6117 0.000441 28.4613C0.000441 29.311 0.689234 29.9998 1.5389 29.9998H33.0774C33.927 29.9998 34.6158 29.311 34.6158 28.4613C34.6158 27.6117 33.927 26.9229 33.0774 26.9229H32.3076C32.3069 26.074 31.6185 25.386 30.7695 25.3858V12.3085H26.9233V25.3858H26.923C26.0738 25.3858 25.3853 26.0739 25.3845 26.9229H20.7694C20.7686 26.0739 20.0801 25.3858 19.2309 25.3858H15.3848C14.5356 25.3858 13.8471 26.0739 13.8463 26.9229ZM19.2312 12.3085H15.3851V25.3854H19.2312V12.3085Z" fill="#FFD643"/>
<path fill-rule="evenodd" clip-rule="evenodd" d="M18 0.175856L17.9382 0.145769C17.5388 -0.0485906 17.0766 -0.0485891 16.6772 0.14577L0.853514 7.84684C0.226958 8.15178 -0.0338181 8.74885 0.00348476 9.32425C0.00768385 9.39483 0.016641 9.46413 0.0300407 9.53183C0.156544 10.1911 0.67694 10.7692 1.484 10.7692H1.49298C1.50833 10.7697 1.52373 10.7699 1.53919 10.7699H2.30849C2.30851 11.6196 2.99729 12.3083 3.84695 12.3083H7.69311C8.54277 12.3083 9.23155 11.6196 9.23157 10.7699H13.8467C13.8468 11.6196 14.5355 12.3083 15.3852 12.3083H18V6.92327H11.3296C10.7315 6.92327 10.5501 6.12861 11.0914 5.87956L17.0692 3.12918C17.2201 3.05976 17.3947 3.05976 17.5456 3.12918L18 3.33824V0.175856ZM18 12.3085H15.3851V25.3854H18V12.3085ZM18 25.3858H15.3848C14.5356 25.3858 13.8471 26.0739 13.8463 26.9229H9.23113C9.23037 26.074 8.54204 25.386 7.69299 25.3858V12.3085H3.84684V25.3858H3.84652C2.99732 25.3858 2.30882 26.0739 2.30806 26.9229H1.5389C0.689233 26.9229 0.000440988 27.6117 0.000440988 28.4613C0.000440988 29.311 0.689234 29.9998 1.5389 29.9998H18V25.3858Z" fill="#FFEAA0"/>
<path d="M51.9131 3.33594H53.9272V10.4185C53.9272 11.2339 53.7515 11.9199 53.3999 12.4766C53.0483 13.0283 52.5698 13.4458 51.9644 13.729C51.3589 14.0073 50.6704 14.1465 49.8989 14.1465C49.1177 14.1465 48.4219 14.0073 47.8115 13.729C47.2012 13.4458 46.7227 13.0283 46.376 12.4766C46.0293 11.9199 45.856 11.2339 45.856 10.4185V3.33594H47.8701V10.4185C47.8701 10.9165 47.9531 11.3242 48.1191 11.6416C48.2852 11.9541 48.5195 12.186 48.8223 12.3374C49.125 12.4888 49.4839 12.5645 49.8989 12.5645C50.3188 12.5645 50.6777 12.4888 50.9756 12.3374C51.2783 12.186 51.5103 11.9541 51.6714 11.6416C51.8325 11.3242 51.9131 10.9165 51.9131 10.4185V3.33594ZM57.853 3.33594V14H55.8389V3.33594H57.853ZM64.2544 3.33594L59.9771 8.53613L57.5308 11.1509L57.1719 9.19531L58.8711 6.99072L61.7861 3.33594H64.2544ZM62.0132 14L58.6953 9.00488L60.1382 7.70117L64.4082 14H62.0132Z" fill="#65C8FF"/>
<path d="M73.168 9.24658H70.4434L70.4287 7.82568H72.7651C73.1655 7.82568 73.5 7.76953 73.7686 7.65723C74.0371 7.54492 74.2397 7.38135 74.3765 7.1665C74.5181 6.95166 74.5889 6.69043 74.5889 6.38281C74.5889 6.04102 74.5229 5.7627 74.3911 5.54785C74.2642 5.33301 74.064 5.17676 73.7905 5.0791C73.5171 4.97656 73.1704 4.92529 72.7505 4.92529H71.0952V14H69.0811V3.33594H72.7505C73.356 3.33594 73.8955 3.39453 74.3691 3.51172C74.8477 3.62402 75.2529 3.7998 75.585 4.03906C75.917 4.27832 76.1685 4.57861 76.3394 4.93994C76.5151 5.30127 76.603 5.73096 76.603 6.229C76.603 6.66846 76.5005 7.07373 76.2954 7.44482C76.0952 7.81104 75.7852 8.10889 75.3652 8.33838C74.9502 8.56787 74.4229 8.69971 73.7832 8.73389L73.168 9.24658ZM73.0801 14H69.8501L70.6924 12.418H73.0801C73.4805 12.418 73.8101 12.3521 74.0688 12.2202C74.3325 12.0884 74.5278 11.9077 74.6548 11.6782C74.7866 11.4438 74.8525 11.1753 74.8525 10.8726C74.8525 10.5405 74.7939 10.2524 74.6768 10.0083C74.5645 9.76416 74.3838 9.57617 74.1348 9.44434C73.8906 9.3125 73.5684 9.24658 73.168 9.24658H71.0732L71.0879 7.82568H73.7539L74.2153 8.375C74.8306 8.37988 75.3311 8.50195 75.7168 8.74121C76.1074 8.98047 76.3955 9.28809 76.5811 9.66406C76.7666 10.04 76.8594 10.4453 76.8594 10.8799C76.8594 11.5635 76.7104 12.1372 76.4126 12.6011C76.1196 13.0649 75.6899 13.4141 75.1235 13.6484C74.562 13.8828 73.8809 14 73.0801 14ZM82.8433 4.95459L79.8037 14H77.6724L81.6567 3.33594H83.019L82.8433 4.95459ZM85.3848 14L82.3306 4.95459L82.1475 3.33594H83.5171L87.5234 14H85.3848ZM85.2456 10.0376V11.627H79.5254V10.0376H85.2456ZM97.1914 3.33594V14H95.1699L90.6362 6.60254V14H88.6221V3.33594H90.6362L95.1846 10.7407V3.33594H97.1914ZM101.256 3.33594V14H99.2422V3.33594H101.256ZM107.658 3.33594L103.38 8.53613L100.934 11.1509L100.575 9.19531L102.274 6.99072L105.189 3.33594H107.658ZM105.417 14L102.099 9.00488L103.542 7.70117L107.812 14H105.417ZM50.9404 19.4688V28H49.4814V19.4688H50.9404ZM53.6182 19.4688V20.6406H46.8271V19.4688H53.6182ZM54.7432 19.4688H57.7607C58.4092 19.4688 58.9619 19.5664 59.4189 19.7617C59.876 19.957 60.2256 20.2461 60.4678 20.6289C60.7139 21.0078 60.8369 21.4766 60.8369 22.0352C60.8369 22.4609 60.7588 22.8359 60.6025 23.1602C60.4463 23.4844 60.2256 23.7578 59.9404 23.9805C59.6553 24.1992 59.3154 24.3691 58.9209 24.4902L58.4756 24.707H55.7627L55.751 23.541H57.7842C58.1357 23.541 58.4287 23.4785 58.6631 23.3535C58.8975 23.2285 59.0732 23.0586 59.1904 22.8438C59.3115 22.625 59.3721 22.3789 59.3721 22.1055C59.3721 21.8086 59.3135 21.5508 59.1963 21.332C59.083 21.1094 58.9072 20.9395 58.6689 20.8223C58.4307 20.7012 58.1279 20.6406 57.7607 20.6406H56.2139V28H54.7432V19.4688ZM59.6123 28L57.6084 24.168L59.1494 24.1621L61.1826 27.9238V28H59.6123ZM65.624 20.6055L63.0752 28H61.5342L64.7451 19.4688H65.7295L65.624 20.6055ZM67.7568 28L65.2021 20.6055L65.0908 19.4688H66.0811L69.3037 28H67.7568ZM67.6338 24.8359V26.002H62.9932V24.8359H67.6338ZM77.0264 19.4688V28H75.5557L71.7295 21.8887V28H70.2588V19.4688H71.7295L75.5674 25.5918V19.4688H77.0264ZM83.2666 25.8027C83.2666 25.627 83.2393 25.4707 83.1846 25.334C83.1338 25.1973 83.042 25.0723 82.9092 24.959C82.7764 24.8457 82.5889 24.7363 82.3467 24.6309C82.1084 24.5215 81.8037 24.4102 81.4326 24.2969C81.0264 24.1719 80.6514 24.0332 80.3076 23.8809C79.9678 23.7246 79.6709 23.5449 79.417 23.3418C79.1631 23.1348 78.9658 22.8984 78.8252 22.6328C78.6846 22.3633 78.6143 22.0527 78.6143 21.7012C78.6143 21.3535 78.6865 21.0371 78.8311 20.752C78.9795 20.4668 79.1885 20.2207 79.458 20.0137C79.7314 19.8027 80.0537 19.6406 80.4248 19.5273C80.7959 19.4102 81.2061 19.3516 81.6553 19.3516C82.2881 19.3516 82.833 19.4688 83.29 19.7031C83.751 19.9375 84.1045 20.252 84.3506 20.6465C84.6006 21.041 84.7256 21.4766 84.7256 21.9531H83.2666C83.2666 21.6719 83.2061 21.4238 83.085 21.209C82.9678 20.9902 82.7881 20.8184 82.5459 20.6934C82.3076 20.5684 82.0049 20.5059 81.6377 20.5059C81.29 20.5059 81.001 20.5586 80.7705 20.6641C80.54 20.7695 80.3682 20.9121 80.2549 21.0918C80.1416 21.2715 80.085 21.4746 80.085 21.7012C80.085 21.8613 80.1221 22.0078 80.1963 22.1406C80.2705 22.2695 80.3838 22.3906 80.5361 22.5039C80.6885 22.6133 80.8799 22.7168 81.1104 22.8145C81.3408 22.9121 81.6123 23.0059 81.9248 23.0957C82.3975 23.2363 82.8096 23.3926 83.1611 23.5645C83.5127 23.7324 83.8057 23.9238 84.04 24.1387C84.2744 24.3535 84.4502 24.5977 84.5674 24.8711C84.6846 25.1406 84.7432 25.4473 84.7432 25.791C84.7432 26.1504 84.6709 26.4746 84.5264 26.7637C84.3818 27.0488 84.1748 27.293 83.9053 27.4961C83.6396 27.6953 83.3193 27.8496 82.9443 27.959C82.5732 28.0645 82.1592 28.1172 81.7021 28.1172C81.292 28.1172 80.8877 28.0625 80.4893 27.9531C80.0947 27.8438 79.7354 27.6777 79.4111 27.4551C79.0869 27.2285 78.8291 26.9473 78.6377 26.6113C78.4463 26.2715 78.3506 25.875 78.3506 25.4219H79.8213C79.8213 25.6992 79.8682 25.9355 79.9619 26.1309C80.0596 26.3262 80.1943 26.4863 80.3662 26.6113C80.5381 26.7324 80.7373 26.8223 80.9639 26.8809C81.1943 26.9395 81.4404 26.9688 81.7021 26.9688C82.0459 26.9688 82.333 26.9199 82.5635 26.8223C82.7979 26.7246 82.9736 26.5879 83.0908 26.4121C83.208 26.2363 83.2666 26.0332 83.2666 25.8027ZM87.5146 19.4688V28H86.0439V19.4688H87.5146ZM90.9951 23.2012V24.3672H87.1396V23.2012H90.9951ZM91.4814 19.4688V20.6406H87.1396V19.4688H91.4814ZM98.2373 26.834V28H93.708V26.834H98.2373ZM94.124 19.4688V28H92.6533V19.4688H94.124ZM97.6455 23.0312V24.1797H93.708V23.0312H97.6455ZM98.208 19.4688V20.6406H93.708V19.4688H98.208ZM99.4385 19.4688H102.456C103.104 19.4688 103.657 19.5664 104.114 19.7617C104.571 19.957 104.921 20.2461 105.163 20.6289C105.409 21.0078 105.532 21.4766 105.532 22.0352C105.532 22.4609 105.454 22.8359 105.298 23.1602C105.142 23.4844 104.921 23.7578 104.636 23.9805C104.351 24.1992 104.011 24.3691 103.616 24.4902L103.171 24.707H100.458L100.446 23.541H102.479C102.831 23.541 103.124 23.4785 103.358 23.3535C103.593 23.2285 103.769 23.0586 103.886 22.8438C104.007 22.625 104.067 22.3789 104.067 22.1055C104.067 21.8086 104.009 21.5508 103.892 21.332C103.778 21.1094 103.603 20.9395 103.364 20.8223C103.126 20.7012 102.823 20.6406 102.456 20.6406H100.909V28H99.4385V19.4688ZM104.308 28L102.304 24.168L103.845 24.1621L105.878 27.9238V28H104.308Z" fill="white"/>
</svg>
