<svg width="67" height="23" viewBox="0 0 67 23" fill="none" xmlns="http://www.w3.org/2000/svg">
<path fill-rule="evenodd" clip-rule="evenodd" d="M47.9431 5.52581C49.4563 5.52581 50.6827 4.28904 50.6827 2.76394C50.6827 1.23795 49.4563 0 47.9431 0C46.4318 0 45.2059 1.23795 45.2059 2.76394C45.2059 4.28904 46.4318 5.52581 47.9431 5.52581ZM26.9615 7.01735C26.8379 7.33063 25.9481 9.86622 23.7963 12.4942V1.25755L18.0628 2.40078V22.7684H23.7963V16.4726C25.4569 18.9853 26.2769 22.7684 26.2769 22.7684H33.1444C32.4651 19.9192 29.4936 14.6657 29.4936 14.6657C32.1605 11.2544 33.3319 7.61955 33.5182 7.01735H26.9615ZM42.0345 6.80474C36.8991 6.97103 34.2923 9.2955 34.2923 13.9162V22.7684H39.8948V15.5497C39.8948 12.7828 40.2539 11.5968 43.5082 11.4837V6.88581C42.9605 6.76851 42.0345 6.80474 42.0345 6.80474ZM8.44717 9.26016C7.74491 9.21354 6.11905 9.10753 6.11905 7.63084C6.11905 5.84888 8.45983 5.84888 9.3378 5.84888C10.8815 5.84888 12.8809 6.30914 14.3087 6.74001C14.3087 6.74001 15.1051 7.02329 15.783 7.3134L15.846 7.33063V2.45037L15.7594 2.42454C14.0744 1.82976 12.1151 1.25755 8.48249 1.25755C2.21922 1.25755 0 4.93875 0 8.09228C0 9.91017 0.772313 14.1885 7.94534 14.682C8.55342 14.7198 10.1672 14.8136 10.1672 16.3396C10.1672 17.5995 8.84598 18.3425 6.62382 18.3425C4.18856 18.3425 1.8263 17.7159 0.391454 17.1217V22.1481C2.53945 22.7161 4.96087 23 7.79877 23C13.9228 23 16.6657 19.5172 16.6657 16.0652C16.6657 12.1512 13.5964 9.60818 8.44717 9.26016ZM45.1659 22.7684H50.7231V7.03517H45.1659V22.7684ZM61.187 2.26063V22.7684H66.745V1.25755L61.187 2.26063ZM53.0771 2.26063L58.6298 1.25755V22.7684H53.0771V2.26063Z" fill="white"/>
</svg>
