<svg width="42" height="37" viewBox="0 0 42 37" fill="none" xmlns="http://www.w3.org/2000/svg">
<g clip-path="url(#clip0_2119_3728)">
<path d="M0 2.74277V34.2572C0 35.7658 1.23489 37 2.7442 37H21.5831C35.8255 37 42 29.0322 42 18.4589C42 7.94033 35.8255 0 21.5831 0H2.7442C1.23489 0 0 1.23425 0 2.74277Z" fill="white"/>
<path d="M12.6096 7.73462V31.0208H22.7494C31.9562 31.0208 35.9491 25.8232 35.9491 18.4726C35.9491 11.4374 31.9562 5.97925 22.7494 5.97925H14.3659C13.3917 5.97925 12.6096 6.77465 12.6096 7.73462Z" fill="#CC0066"/>
<path d="M21.5831 34.4904H5.20023C3.7458 34.4904 2.5658 33.311 2.5658 31.8573V5.15641C2.5658 3.70275 3.7458 2.52335 5.20023 2.52335H21.5831C37.129 2.52335 39.4478 12.5208 39.4478 18.4726C39.4478 28.7991 33.095 34.4904 21.5831 34.4904ZM5.20023 3.40104C4.22604 3.40104 3.44394 4.18273 3.44394 5.15641V31.8573C3.44394 32.831 4.22604 33.6127 5.20023 33.6127H21.5831C32.5325 33.6127 38.5697 28.2368 38.5697 18.4726C38.5697 5.36212 27.9222 3.40104 21.5831 3.40104H5.20023Z" fill="black"/>
<path d="M16.1771 15.3321C16.5338 15.3321 16.8631 15.387 17.1787 15.4967C17.4943 15.6064 17.755 15.7847 17.9882 16.0041C18.2078 16.2372 18.3862 16.5252 18.5234 16.8543C18.6469 17.1972 18.7155 17.5949 18.7155 18.0612C18.7155 18.4726 18.6606 18.8428 18.5645 19.1857C18.4548 19.5285 18.3038 19.8302 18.098 20.0771C17.8922 20.3239 17.6315 20.5159 17.3159 20.6668C17.0003 20.8039 16.6299 20.8862 16.2045 20.8862H13.8033V15.3184H16.1771V15.3321ZM16.0947 19.8714C16.2731 19.8714 16.4378 19.844 16.6161 19.7891C16.7808 19.7342 16.9317 19.6382 17.0552 19.5011C17.1787 19.364 17.2885 19.1994 17.3708 18.98C17.4531 18.7606 17.4943 18.5137 17.4943 18.1983C17.4943 17.924 17.4668 17.6635 17.412 17.444C17.3571 17.2246 17.261 17.0189 17.1375 16.868C17.0141 16.7172 16.8494 16.5801 16.6436 16.4978C16.4378 16.4155 16.1908 16.3743 15.8889 16.3743H15.0108V19.8851H16.0947V19.8714Z" fill="white"/>
<path d="M23.6687 15.3321V16.3606H20.7324V17.5537H23.4354V18.5H20.7324V19.8577H23.7373V20.8862H19.5112V15.3184H23.6687V15.3321Z" fill="white"/>
<path d="M27.8673 15.3321L29.9529 20.8999H28.6768L28.2515 19.6657H26.1659L25.7268 20.8999H24.4919L26.5913 15.3321H27.8673ZM27.9359 18.7469L27.2361 16.7035H27.2224L26.4952 18.7469H27.9359Z" fill="white"/>
<path d="M31.9425 15.3321V19.8714H34.6592V20.8999H30.7213V15.3321H31.9425Z" fill="white"/>
<path d="M8.02677 20.6805C9.44384 20.6805 10.5926 19.5323 10.5926 18.116C10.5926 16.6997 9.44384 15.5515 8.02677 15.5515C6.6097 15.5515 5.46094 16.6997 5.46094 18.116C5.46094 19.5323 6.6097 20.6805 8.02677 20.6805Z" fill="black"/>
<path d="M9.96141 31.0208C7.80722 31.0208 6.07837 29.2791 6.07837 27.1397V24.109C6.07837 23.0393 6.94279 22.1616 8.02675 22.1616C9.09699 22.1616 9.97513 23.0256 9.97513 24.109V31.0208H9.96141Z" fill="black"/>
</g>
<defs>
<clipPath id="clip0_2119_3728">
<rect width="42" height="37" fill="white"/>
</clipPath>
</defs>
</svg>
