<svg width="86" height="19" viewBox="0 0 86 19" fill="none" xmlns="http://www.w3.org/2000/svg">
<g clip-path="url(#clip0_2119_3716)">
<path d="M15.134 0H10.8995C10.8995 3.43917 9.30445 6.57765 6.53209 8.64491L4.86108 9.88526L11.3552 18.6429H16.6911L10.7096 10.5806C13.5389 7.79921 15.134 4.04055 15.134 0Z" fill="#F7ADC1"/>
<path d="M4.32943 0H0V18.6429H4.32943V0Z" fill="#F7ADC1"/>
<path d="M22.0269 0H17.9443V18.6429H22.0269V0Z" fill="#F7ADC1"/>
<path d="M57.8397 5.39367C56.2827 5.39367 54.8015 5.8635 53.8141 7.19782V5.75074H49.9404V18.6429H53.8711V11.8774C53.8711 9.92285 55.2003 8.96439 56.7954 8.96439C58.5044 8.96439 59.4918 9.97923 59.4918 11.8586V18.6617H63.3845V10.4491C63.3845 7.44214 60.9729 5.39367 57.8397 5.39367Z" fill="#F7ADC1"/>
<path d="M34.3696 5.75074V6.57765C33.2682 5.82591 31.939 5.39367 30.4959 5.39367C26.6981 5.39367 23.6219 8.43818 23.6219 12.1968C23.6219 15.9555 26.6981 19 30.4959 19C31.939 19 33.2682 18.5678 34.3696 17.816V18.6429H38.2623V5.75074H34.3696ZM30.8187 15.5045C28.8628 15.5045 27.2868 14.0198 27.2868 12.1968C27.2868 10.3739 28.8628 8.88922 30.8187 8.88922C32.7745 8.88922 34.3506 10.3739 34.3506 12.1968C34.3506 14.0198 32.7745 15.5045 30.8187 15.5045Z" fill="#F7ADC1"/>
<path d="M44.3007 7.42334V5.75074H40.3131V18.6429H44.3197V12.6291C44.3197 10.5994 46.5414 9.50939 48.0795 9.50939C48.0985 9.50939 48.1175 9.50939 48.1175 9.50939V5.75074C46.5414 5.75074 45.0793 6.4273 44.3007 7.42334Z" fill="#F7ADC1"/>
<path d="M75.4992 5.75074V6.57765C74.3979 5.82591 73.0687 5.39367 71.6255 5.39367C67.8278 5.39367 64.7516 8.43818 64.7516 12.1968C64.7516 15.9555 67.8278 19 71.6255 19C73.0687 19 74.3979 18.5678 75.4992 17.816V18.6429H79.3919V5.75074H75.4992ZM71.9483 15.5045C69.9925 15.5045 68.4164 14.0198 68.4164 12.1968C68.4164 10.3739 69.9925 8.88922 71.9483 8.88922C73.9042 8.88922 75.4802 10.3739 75.4802 12.1968C75.4992 14.0198 73.9042 15.5045 71.9483 15.5045Z" fill="#F7ADC1"/>
<path d="M82.4111 6.1266C82.4111 5.93867 82.2782 5.82591 82.0693 5.82591H81.7085V6.80316H81.8794V6.44609H82.0693L82.2212 6.80316H82.4111L82.2402 6.4085C82.3541 6.35212 82.4111 6.25816 82.4111 6.1266ZM82.0693 6.27695H81.8794V5.97626H82.0693C82.1832 5.97626 82.2402 6.03264 82.2402 6.1266C82.2402 6.22057 82.2022 6.27695 82.0693 6.27695Z" fill="#F7ADC1"/>
<path d="M82.0124 5.41246C81.4997 5.41246 81.0819 5.82591 81.0819 6.33333C81.1009 6.84075 81.4997 7.2542 82.0124 7.2542C82.5251 7.2542 82.9428 6.84075 82.9428 6.33333C82.9428 5.82591 82.5251 5.41246 82.0124 5.41246ZM82.0124 7.08506C81.5946 7.08506 81.2718 6.74678 81.2718 6.33333C81.2718 5.91988 81.6136 5.5816 82.0124 5.5816C82.4301 5.5816 82.7529 5.91988 82.7529 6.33333C82.7529 6.74678 82.4111 7.08506 82.0124 7.08506Z" fill="#F7ADC1"/>
<path d="M83.5505 14.0762C82.2023 14.0762 81.101 15.1662 81.101 16.5005C81.101 17.8348 82.2023 18.9248 83.5505 18.9248C84.8987 18.9248 86 17.8348 86 16.5005C86 15.1474 84.8987 14.0762 83.5505 14.0762Z" fill="#F7ADC1"/>
</g>
<defs>
<clipPath id="clip0_2119_3716">
<rect width="86" height="19" fill="white"/>
</clipPath>
</defs>
</svg>
