<svg width="67" height="22" viewBox="0 0 67 22" fill="none" xmlns="http://www.w3.org/2000/svg">
<g clip-path="url(#clip0_2311_874)">
<path d="M29.0334 21.6826H23.606L27.0007 0.386032H32.4279L29.0334 21.6826Z" fill="#0973CC"/>
<path d="M48.7082 0.906673C47.6377 0.475766 45.9397 -7.62939e-06 43.8402 -7.62939e-06C38.4804 -7.62939e-06 34.706 2.8998 34.6829 7.04566C34.6384 10.1045 37.3852 11.8034 39.4396 12.8233C41.5394 13.8655 42.2532 14.5457 42.2532 15.4747C42.2318 16.9014 40.5564 17.559 38.9938 17.559C36.8269 17.559 35.6659 17.22 33.9014 16.4262L33.1867 16.086L32.4272 20.8666C33.7002 21.455 36.0455 21.9771 38.4804 22C44.1753 22 47.8828 19.1451 47.9267 14.727C47.9484 12.3027 46.498 10.445 43.3709 8.92707C41.4726 7.95264 40.3101 7.29559 40.3101 6.29857C40.3324 5.39219 41.2934 4.46383 43.4362 4.46383C45.2007 4.41836 46.4971 4.84867 47.4792 5.27927L47.9701 5.50541L48.7082 0.906673Z" fill="#0973CC"/>
<path d="M55.9221 14.138C56.369 12.9145 58.089 8.17938 58.089 8.17938C58.0664 8.22485 58.535 6.93334 58.803 6.14048L59.1823 7.97552C59.1823 7.97552 60.2101 13.0732 60.4333 14.138C59.5851 14.138 56.9941 14.138 55.9221 14.138ZM62.6216 0.386032H58.4234C57.1288 0.386032 56.1453 0.770866 55.5867 2.15302L47.5249 21.6823H53.2198C53.2198 21.6823 54.1573 19.0538 54.3589 18.4877C54.9836 18.4877 60.5236 18.4877 61.3273 18.4877C61.4831 19.2354 61.9749 21.6823 61.9749 21.6823H67.0002L62.6216 0.386032Z" fill="#0973CC"/>
<path d="M19.0728 0.386032L13.7575 14.9083L13.1767 11.963C12.194 8.56452 9.1121 4.87216 5.67285 3.03621L10.5415 21.66H16.2809L24.8119 0.386032H19.0728Z" fill="#0973CC"/>
<path d="M8.8216 0.386032H0.0893346L0 0.816336C6.81172 2.58362 11.323 6.84361 13.1765 11.9639L11.2782 2.17621C10.9656 0.816035 10.0052 0.430899 8.8216 0.386032Z" fill="#FAA61A"/>
</g>
<defs>
<clipPath id="clip0_2311_874">
<rect width="67" height="22" fill="white"/>
</clipPath>
</defs>
</svg>
