<svg width="49" height="22" viewBox="0 0 49 22" fill="none" xmlns="http://www.w3.org/2000/svg">
<path d="M48.0575 10.9999C48.0575 17.0751 43.1327 22 37.0576 22C30.9825 22 26.0576 17.0751 26.0576 10.9999C26.0576 4.92484 30.9825 0 37.0576 0C43.1326 0 48.0575 4.92484 48.0575 10.9999Z" fill="#BEBEBE"/>
<path d="M45.7217 11.0006C45.7217 15.7856 41.8425 19.6651 37.0572 19.6651C32.2721 19.6651 28.3926 15.7856 28.3926 11.0006C28.3926 6.21522 32.2721 2.33594 37.0572 2.33594C41.8426 2.33594 45.7217 6.21515 45.7217 11.0006Z" fill="#BEBEBE"/>
<path d="M36.414 13.9393L37.1285 11.249L38.82 10.631L39.2408 9.04986L39.2264 9.01064L37.5613 9.61895L38.761 5.10156H35.3586L33.7897 10.9969L32.4797 11.4754L32.0469 13.1054L33.3558 12.6273L32.4311 16.1016H41.4863L42.0668 13.9393H36.414Z" fill="white"/>
<path d="M24.4902 22C30.5654 22 35.4902 17.0751 35.4902 11C35.4902 4.92487 30.5654 0 24.4902 0C18.4151 0 13.4902 4.92487 13.4902 11C13.4902 17.0751 18.4151 22 24.4902 22Z" fill="#627EEA"/>
<path d="M24.7178 4.35156V9.05241L28.6908 10.828L24.7178 4.35156Z" fill="white" fill-opacity="0.602"/>
<path d="M24.7181 4.35156L20.7451 10.828L24.7181 9.05241V4.35156Z" fill="white"/>
<path d="M24.7178 13.8728V17.067L28.6931 11.5664L24.7178 13.8728Z" fill="white" fill-opacity="0.602"/>
<path d="M24.7181 17.067V13.8728L20.7451 11.5664L24.7181 17.067Z" fill="white"/>
<path d="M24.7178 13.1366L28.6908 10.8303L24.7178 9.05469V13.1366Z" fill="white" fill-opacity="0.2"/>
<path d="M20.7451 10.8263L24.7181 13.1327V9.05078L20.7451 10.8263Z" fill="white" fill-opacity="0.602"/>
<path d="M22.5898 13.661C21.1205 19.5539 15.1513 23.1402 9.257 21.6707C3.36519 20.2015 -0.221524 14.2326 1.24842 8.34017C2.71707 2.44661 8.6863 -1.13997 14.5788 0.329158C20.4726 1.79829 24.0591 7.76787 22.5896 13.6611L22.5898 13.661H22.5898Z" fill="#F7931A"/>
<path d="M16.7706 9.43256C16.9895 7.9687 15.8749 7.18182 14.3508 6.6569L14.8452 4.67397L13.638 4.3732L13.1567 6.30391C12.8393 6.22477 12.5134 6.1502 12.1895 6.07627L12.6743 4.1328L11.4678 3.83203L10.9731 5.81431C10.7105 5.75452 10.4526 5.69543 10.2023 5.63317L10.2037 5.62693L8.53894 5.21126L8.21781 6.50049C8.21781 6.50049 9.11345 6.70577 9.09458 6.7184C9.58343 6.8404 9.67183 7.16397 9.65715 7.42044L9.09393 9.67946C9.12759 9.68801 9.17126 9.70038 9.21944 9.71973C9.17916 9.70973 9.13631 9.69882 9.09183 9.68817L8.30239 12.8527C8.24265 13.0012 8.09101 13.2241 7.74923 13.1395C7.76133 13.157 6.87182 12.9205 6.87182 12.9205L6.27246 14.3022L7.84344 14.6938C8.1357 14.7671 8.42209 14.8438 8.70413 14.9159L8.20458 16.9216L9.41039 17.2223L9.9051 15.2379C10.2345 15.3274 10.5542 15.4098 10.8672 15.4876L10.3741 17.4626L11.5814 17.7634L12.0809 15.7615C14.1394 16.151 15.6873 15.994 16.3388 14.1322C16.8638 12.6333 16.3126 11.7687 15.2296 11.2049C16.0184 11.023 16.6126 10.5043 16.771 9.43272L16.7706 9.43246L16.7706 9.43256ZM14.0124 13.2998C13.6393 14.7987 11.1153 13.9885 10.297 13.7853L10.9599 11.1281C11.7782 11.3324 14.4023 11.7366 14.0124 13.2998H14.0124ZM14.3857 9.41084C14.0454 10.7743 11.9447 10.0816 11.2632 9.91173L11.8642 7.50184C12.5457 7.67169 14.7403 7.9887 14.3858 9.41084H14.3857Z" fill="white"/>
</svg>