<svg width="93" height="16" viewBox="0 0 93 16" fill="none" xmlns="http://www.w3.org/2000/svg">
<g clip-path="url(#clip0_2119_3756)">
<path d="M4.26931 0.582956H0V15.3199H4.24861C6.50924 15.3199 8.13827 14.7924 9.57058 13.6196C10.4091 12.9363 11.0867 12.0747 11.5546 11.0967C12.0224 10.1188 12.269 9.04875 12.2764 7.96356C12.2764 3.6157 8.98731 0.586419 4.26931 0.586419V0.582956ZM7.66889 11.6556C6.75429 12.4711 5.56702 12.8284 3.68604 12.8284H2.91984V3.07786H3.69984C5.58083 3.07786 6.71977 3.42485 7.68269 4.26806C8.19223 4.73152 8.59907 5.2976 8.87676 5.9295C9.15445 6.5614 9.29677 7.24499 9.29448 7.93581C9.29621 8.63497 9.15248 9.32677 8.87253 9.96678C8.59258 10.6068 8.18259 11.1809 7.66889 11.6521V11.6556Z" fill="white"/>
<path d="M16.5251 0.582954H13.6156V15.3199H16.5251V0.582954Z" fill="white"/>
<path d="M23.6279 6.23552C21.8815 5.59704 21.3707 5.17719 21.3707 4.3791C21.3707 3.45262 22.2853 2.74474 23.5382 2.74474C24.4114 2.74474 25.1258 3.09173 25.8851 3.9384L27.4071 1.96747C26.1937 0.902614 24.6345 0.321245 23.0239 0.333117C20.3836 0.333117 18.3715 2.14443 18.3715 4.55606C18.3715 6.58599 19.3103 7.62698 22.0403 8.59857C22.7355 8.81501 23.4091 9.09613 24.0524 9.4383C24.3181 9.5929 24.5386 9.81505 24.6919 10.0824C24.8451 10.3498 24.9258 10.653 24.9256 10.9616C24.9256 12.1553 23.9661 13.0436 22.665 13.0436C22.0042 13.0562 21.3538 12.8779 20.7909 12.5297C20.2281 12.1815 19.7764 11.6782 19.4898 11.0796L17.6088 12.8666C18.9479 14.8098 20.5597 15.6738 22.7858 15.6738C25.8092 15.6738 27.9317 13.689 27.9317 10.8367C27.9317 8.49447 26.9516 7.43613 23.6417 6.23899" fill="white"/>
<path d="M28.8463 7.9601C28.8463 12.2906 32.2977 15.6495 36.7188 15.6495C37.9848 15.6511 39.2338 15.3565 40.3669 14.789V11.4058C39.2038 12.5543 38.1753 13.0193 36.8534 13.0193C33.9232 13.0193 31.8421 10.9373 31.8421 7.93581C31.8256 7.28014 31.9391 6.62773 32.1762 6.01667C32.4132 5.40561 32.7689 4.84816 33.2226 4.37686C33.6763 3.90555 34.2188 3.52983 34.8185 3.27165C35.4182 3.01347 36.063 2.878 36.7154 2.87314C38.0959 2.87314 39.152 3.3624 40.3635 4.53178V1.14857C39.2636 0.552894 38.0337 0.241656 36.7844 0.242901C32.377 0.242901 28.8463 3.67122 28.8463 7.95316" fill="white"/>
<path d="M63.4358 10.4793L59.4598 0.582954H56.2811L62.6074 15.6981H64.1744L70.618 0.582954H67.4635L63.4358 10.4793Z" fill="white"/>
<path d="M71.933 15.3199H80.1852V12.825H74.839V8.84494H79.9884V6.35003H74.839V3.08133H80.1852V0.582954H71.933V15.3199Z" fill="white"/>
<path d="M91.7023 4.93082C91.7023 2.15485 89.7799 0.579483 86.4252 0.579483H82.111V15.3164H85.017V9.39666H85.407L89.4347 15.3164H93L88.3061 9.10865C90.4978 8.66796 91.7023 7.18629 91.7023 4.94469V4.93082ZM85.866 7.37367H85.017V2.9113H85.9143C87.7263 2.9113 88.7099 3.66081 88.7099 5.09391C88.7099 6.527 87.7229 7.36673 85.866 7.36673V7.37367Z" fill="white"/>
<g filter="url(#filter0_i_2119_3756)">
<ellipse cx="49.3182" cy="8" rx="7.98485" ry="8" fill="url(#paint0_linear_2119_3756)"/>
</g>
</g>
<defs>
<filter id="filter0_i_2119_3756" x="41.3334" y="0" width="18.9697" height="18" filterUnits="userSpaceOnUse" color-interpolation-filters="sRGB">
<feFlood flood-opacity="0" result="BackgroundImageFix"/>
<feBlend mode="normal" in="SourceGraphic" in2="BackgroundImageFix" result="shape"/>
<feColorMatrix in="SourceAlpha" type="matrix" values="0 0 0 0 0 0 0 0 0 0 0 0 0 0 0 0 0 0 127 0" result="hardAlpha"/>
<feOffset dx="3" dy="2"/>
<feGaussianBlur stdDeviation="2"/>
<feComposite in2="hardAlpha" operator="arithmetic" k2="-1" k3="1"/>
<feColorMatrix type="matrix" values="0 0 0 0 0.552941 0 0 0 0 0.152941 0 0 0 0 0.109804 0 0 0 1 0"/>
<feBlend mode="normal" in2="shape" result="effect1_innerShadow_2119_3756"/>
</filter>
<linearGradient id="paint0_linear_2119_3756" x1="59.1819" y1="13.1765" x2="42.7192" y2="0.500776" gradientUnits="userSpaceOnUse">
<stop stop-color="#F59314"/>
<stop offset="1" stop-color="#DF461F"/>
</linearGradient>
<clipPath id="clip0_2119_3756">
<rect width="93" height="16" fill="white"/>
</clipPath>
</defs>
</svg>
