<svg width="36" height="22" viewBox="0 0 36 22" fill="none" xmlns="http://www.w3.org/2000/svg">
<g clip-path="url(#clip0_2311_890)">
<path d="M22.4622 2.38505H12.8184V19.9139H22.4622V2.38505Z" fill="#FF5A00"/>
<path d="M13.624 11.1495C13.624 7.58814 15.2788 4.42732 17.8182 2.38505C15.9493 0.898454 13.5919 0 11.0205 0C4.92889 0 0 4.9866 0 11.1495C0 17.3124 4.92889 22.299 11.0205 22.299C13.5919 22.299 15.9493 21.4005 17.8182 19.9139C15.2753 17.9005 13.624 14.7108 13.624 11.1495Z" fill="#EB001B"/>
<path d="M35.2801 11.1495C35.2801 17.3123 30.3512 22.2989 24.2596 22.2989C21.6882 22.2989 19.3308 21.4005 17.4619 19.9139C20.0334 17.868 21.6561 14.7108 21.6561 11.1495C21.6561 7.58812 20.0013 4.4273 17.4619 2.38503C19.3272 0.898431 21.6846 -2.28882e-05 24.2561 -2.28882e-05C30.3512 -2.28882e-05 35.2801 5.01905 35.2801 11.1495Z" fill="#F79E1B"/>
</g>
<defs>
<clipPath id="clip0_2311_890">
<rect width="35.6364" height="22" fill="white"/>
</clipPath>
</defs>
</svg>
