<svg width="107" height="32" viewBox="0 0 107 32" fill="none" xmlns="http://www.w3.org/2000/svg">
<path fill-rule="evenodd" clip-rule="evenodd" d="M16.6772 0.14577C17.0766 -0.0485891 17.5388 -0.0485906 17.9382 0.145769L33.7619 7.84685C34.3263 8.12153 34.5939 8.63328 34.6141 9.1527C34.6155 9.17878 34.6161 9.20504 34.6161 9.23145C34.6161 9.38358 34.594 9.53056 34.5529 9.66934C34.3843 10.2694 33.8818 10.7692 33.1314 10.7692H33.1238C33.1085 10.7697 33.0931 10.7699 33.0777 10.7699L32.3081 10.7699C32.3081 11.6195 31.6193 12.3083 30.7696 12.3083H26.9234C26.0738 12.3083 25.385 11.6196 25.385 10.7699H20.7698C20.7698 11.6196 20.081 12.3083 19.2314 12.3083H15.3852C14.5355 12.3083 13.8468 11.6196 13.8467 10.7699H9.23157C9.23155 11.6196 8.54277 12.3083 7.69311 12.3083H3.84695C2.99729 12.3083 2.30851 11.6196 2.30849 10.7699H1.53919C1.52373 10.7699 1.50833 10.7697 1.49298 10.7692H1.484C0.67694 10.7692 0.156544 10.1911 0.0300407 9.53183C0.016641 9.46413 0.00768385 9.39483 0.00348476 9.32425C-0.0338181 8.74885 0.226958 8.15178 0.853514 7.84684L16.6772 0.14577ZM17.0692 3.12918C17.2201 3.05976 17.3947 3.05976 17.5456 3.12918L23.5234 5.87956C24.0647 6.12861 23.8834 6.92327 23.2853 6.92327H11.3296C10.7315 6.92327 10.5501 6.12861 11.0914 5.87956L17.0692 3.12918ZM13.8463 26.9229H9.23113C9.23037 26.074 8.54204 25.386 7.69299 25.3858V12.3085H3.84684V25.3858H3.84652C2.99732 25.3858 2.30882 26.0739 2.30806 26.9229H1.5389C0.689233 26.9229 0.000441 27.6117 0.000441 28.4613C0.000441 29.311 0.689234 29.9998 1.5389 29.9998H33.0774C33.927 29.9998 34.6158 29.311 34.6158 28.4613C34.6158 27.6117 33.927 26.9229 33.0774 26.9229H32.3076C32.3069 26.074 31.6185 25.386 30.7695 25.3858V12.3085H26.9233V25.3858H26.923C26.0738 25.3858 25.3853 26.0739 25.3845 26.9229H20.7694C20.7686 26.0739 20.0801 25.3858 19.2309 25.3858H15.3848C14.5356 25.3858 13.8471 26.0739 13.8463 26.9229ZM19.2312 12.3085H15.3851V25.3854H19.2312V12.3085Z" fill="#FFD643"/>
<path fill-rule="evenodd" clip-rule="evenodd" d="M17.6934 0.0528487C17.3574 -0.040898 16.9971 -0.00992368 16.6772 0.14577L0.853514 7.84684C0.226958 8.15178 -0.0338181 8.74885 0.00348476 9.32425C0.00768385 9.39483 0.016641 9.46413 0.0300407 9.53183C0.156544 10.1911 0.67694 10.7692 1.484 10.7692H1.49298C1.50833 10.7697 1.52373 10.7699 1.53919 10.7699H2.30849C2.30851 11.6196 2.99729 12.3083 3.84695 12.3083H7.69311C8.54277 12.3083 9.23155 11.6196 9.23157 10.7699H13.8467C13.8468 11.6196 14.5355 12.3083 15.3852 12.3083H17.6934V6.92327H11.3296C10.7315 6.92327 10.5501 6.12861 11.0914 5.87956L17.0692 3.12918C17.2201 3.05976 17.3947 3.05976 17.5456 3.12918L17.6934 3.19716V0.0528487ZM17.6934 12.3085H15.3851V25.3854H17.6934V12.3085ZM17.6934 25.3858H15.3848C14.5356 25.3858 13.8471 26.0739 13.8463 26.9229H9.23113C9.23037 26.074 8.54204 25.386 7.69299 25.3858V12.3085H3.84684V25.3858H3.84652C2.99732 25.3858 2.30882 26.0739 2.30806 26.9229H1.5389C0.689233 26.9229 0.000440988 27.6117 0.000440988 28.4613C0.000440988 29.311 0.689234 29.9998 1.5389 29.9998H17.6934V25.3858Z" fill="#FFEAA0"/>
<path d="M53.0684 12.418V14H47.3994V12.418H53.0684ZM48.0146 3.33594V14H46.0005V3.33594H48.0146ZM52.3286 7.73779V9.2832H47.3994V7.73779H52.3286ZM53.0464 3.33594V4.92529H47.3994V3.33594H53.0464ZM60.3999 3.33594H62.4141V10.4185C62.4141 11.2339 62.2383 11.9199 61.8867 12.4766C61.5352 13.0283 61.0566 13.4458 60.4512 13.729C59.8457 14.0073 59.1572 14.1465 58.3857 14.1465C57.6045 14.1465 56.9087 14.0073 56.2983 13.729C55.688 13.4458 55.2095 13.0283 54.8628 12.4766C54.5161 11.9199 54.3428 11.2339 54.3428 10.4185V3.33594H56.3569V10.4185C56.3569 10.9165 56.4399 11.3242 56.606 11.6416C56.772 11.9541 57.0063 12.186 57.3091 12.3374C57.6118 12.4888 57.9707 12.5645 58.3857 12.5645C58.8057 12.5645 59.1646 12.4888 59.4624 12.3374C59.7651 12.186 59.9971 11.9541 60.1582 11.6416C60.3193 11.3242 60.3999 10.9165 60.3999 10.4185V3.33594Z" fill="#C784FC"/>
<path d="M72.1479 9.24658H69.4233L69.4087 7.82568H71.7451C72.1455 7.82568 72.48 7.76953 72.7485 7.65723C73.0171 7.54492 73.2197 7.38135 73.3564 7.1665C73.498 6.95166 73.5688 6.69043 73.5688 6.38281C73.5688 6.04102 73.5029 5.7627 73.3711 5.54785C73.2441 5.33301 73.0439 5.17676 72.7705 5.0791C72.4971 4.97656 72.1504 4.92529 71.7305 4.92529H70.0752V14H68.061V3.33594H71.7305C72.3359 3.33594 72.8755 3.39453 73.3491 3.51172C73.8276 3.62402 74.2329 3.7998 74.5649 4.03906C74.897 4.27832 75.1484 4.57861 75.3193 4.93994C75.4951 5.30127 75.583 5.73096 75.583 6.229C75.583 6.66846 75.4805 7.07373 75.2754 7.44482C75.0752 7.81104 74.7651 8.10889 74.3452 8.33838C73.9302 8.56787 73.4028 8.69971 72.7632 8.73389L72.1479 9.24658ZM72.0601 14H68.8301L69.6724 12.418H72.0601C72.4604 12.418 72.79 12.3521 73.0488 12.2202C73.3125 12.0884 73.5078 11.9077 73.6348 11.6782C73.7666 11.4438 73.8325 11.1753 73.8325 10.8726C73.8325 10.5405 73.7739 10.2524 73.6567 10.0083C73.5444 9.76416 73.3638 9.57617 73.1147 9.44434C72.8706 9.3125 72.5483 9.24658 72.1479 9.24658H70.0532L70.0679 7.82568H72.7339L73.1953 8.375C73.8105 8.37988 74.311 8.50195 74.6968 8.74121C75.0874 8.98047 75.3755 9.28809 75.561 9.66406C75.7466 10.04 75.8394 10.4453 75.8394 10.8799C75.8394 11.5635 75.6904 12.1372 75.3926 12.6011C75.0996 13.0649 74.6699 13.4141 74.1035 13.6484C73.542 13.8828 72.8608 14 72.0601 14ZM81.8232 4.95459L78.7837 14H76.6523L80.6367 3.33594H81.999L81.8232 4.95459ZM84.3647 14L81.3105 4.95459L81.1274 3.33594H82.4971L86.5034 14H84.3647ZM84.2256 10.0376V11.627H78.5054V10.0376H84.2256ZM96.1714 3.33594V14H94.1499L89.6162 6.60254V14H87.6021V3.33594H89.6162L94.1646 10.7407V3.33594H96.1714ZM100.236 3.33594V14H98.2222V3.33594H100.236ZM106.638 3.33594L102.36 8.53613L99.9141 11.1509L99.5552 9.19531L101.254 6.99072L104.169 3.33594H106.638ZM104.396 14L101.079 9.00488L102.521 7.70117L106.792 14H104.396ZM50.4404 19.4688V28H48.9814V19.4688H50.4404ZM53.1182 19.4688V20.6406H46.3271V19.4688H53.1182ZM54.2432 19.4688H57.2607C57.9092 19.4688 58.4619 19.5664 58.9189 19.7617C59.376 19.957 59.7256 20.2461 59.9678 20.6289C60.2139 21.0078 60.3369 21.4766 60.3369 22.0352C60.3369 22.4609 60.2588 22.8359 60.1025 23.1602C59.9463 23.4844 59.7256 23.7578 59.4404 23.9805C59.1553 24.1992 58.8154 24.3691 58.4209 24.4902L57.9756 24.707H55.2627L55.251 23.541H57.2842C57.6357 23.541 57.9287 23.4785 58.1631 23.3535C58.3975 23.2285 58.5732 23.0586 58.6904 22.8438C58.8115 22.625 58.8721 22.3789 58.8721 22.1055C58.8721 21.8086 58.8135 21.5508 58.6963 21.332C58.583 21.1094 58.4072 20.9395 58.1689 20.8223C57.9307 20.7012 57.6279 20.6406 57.2607 20.6406H55.7139V28H54.2432V19.4688ZM59.1123 28L57.1084 24.168L58.6494 24.1621L60.6826 27.9238V28H59.1123ZM65.124 20.6055L62.5752 28H61.0342L64.2451 19.4688H65.2295L65.124 20.6055ZM67.2568 28L64.7021 20.6055L64.5908 19.4688H65.5811L68.8037 28H67.2568ZM67.1338 24.8359V26.002H62.4932V24.8359H67.1338ZM76.5264 19.4688V28H75.0557L71.2295 21.8887V28H69.7588V19.4688H71.2295L75.0674 25.5918V19.4688H76.5264ZM82.7666 25.8027C82.7666 25.627 82.7393 25.4707 82.6846 25.334C82.6338 25.1973 82.542 25.0723 82.4092 24.959C82.2764 24.8457 82.0889 24.7363 81.8467 24.6309C81.6084 24.5215 81.3037 24.4102 80.9326 24.2969C80.5264 24.1719 80.1514 24.0332 79.8076 23.8809C79.4678 23.7246 79.1709 23.5449 78.917 23.3418C78.6631 23.1348 78.4658 22.8984 78.3252 22.6328C78.1846 22.3633 78.1143 22.0527 78.1143 21.7012C78.1143 21.3535 78.1865 21.0371 78.3311 20.752C78.4795 20.4668 78.6885 20.2207 78.958 20.0137C79.2314 19.8027 79.5537 19.6406 79.9248 19.5273C80.2959 19.4102 80.7061 19.3516 81.1553 19.3516C81.7881 19.3516 82.333 19.4688 82.79 19.7031C83.251 19.9375 83.6045 20.252 83.8506 20.6465C84.1006 21.041 84.2256 21.4766 84.2256 21.9531H82.7666C82.7666 21.6719 82.7061 21.4238 82.585 21.209C82.4678 20.9902 82.2881 20.8184 82.0459 20.6934C81.8076 20.5684 81.5049 20.5059 81.1377 20.5059C80.79 20.5059 80.501 20.5586 80.2705 20.6641C80.04 20.7695 79.8682 20.9121 79.7549 21.0918C79.6416 21.2715 79.585 21.4746 79.585 21.7012C79.585 21.8613 79.6221 22.0078 79.6963 22.1406C79.7705 22.2695 79.8838 22.3906 80.0361 22.5039C80.1885 22.6133 80.3799 22.7168 80.6104 22.8145C80.8408 22.9121 81.1123 23.0059 81.4248 23.0957C81.8975 23.2363 82.3096 23.3926 82.6611 23.5645C83.0127 23.7324 83.3057 23.9238 83.54 24.1387C83.7744 24.3535 83.9502 24.5977 84.0674 24.8711C84.1846 25.1406 84.2432 25.4473 84.2432 25.791C84.2432 26.1504 84.1709 26.4746 84.0264 26.7637C83.8818 27.0488 83.6748 27.293 83.4053 27.4961C83.1396 27.6953 82.8193 27.8496 82.4443 27.959C82.0732 28.0645 81.6592 28.1172 81.2021 28.1172C80.792 28.1172 80.3877 28.0625 79.9893 27.9531C79.5947 27.8438 79.2354 27.6777 78.9111 27.4551C78.5869 27.2285 78.3291 26.9473 78.1377 26.6113C77.9463 26.2715 77.8506 25.875 77.8506 25.4219H79.3213C79.3213 25.6992 79.3682 25.9355 79.4619 26.1309C79.5596 26.3262 79.6943 26.4863 79.8662 26.6113C80.0381 26.7324 80.2373 26.8223 80.4639 26.8809C80.6943 26.9395 80.9404 26.9688 81.2021 26.9688C81.5459 26.9688 81.833 26.9199 82.0635 26.8223C82.2979 26.7246 82.4736 26.5879 82.5908 26.4121C82.708 26.2363 82.7666 26.0332 82.7666 25.8027ZM87.0146 19.4688V28H85.5439V19.4688H87.0146ZM90.4951 23.2012V24.3672H86.6396V23.2012H90.4951ZM90.9814 19.4688V20.6406H86.6396V19.4688H90.9814ZM97.7373 26.834V28H93.208V26.834H97.7373ZM93.624 19.4688V28H92.1533V19.4688H93.624ZM97.1455 23.0312V24.1797H93.208V23.0312H97.1455ZM97.708 19.4688V20.6406H93.208V19.4688H97.708ZM98.9385 19.4688H101.956C102.604 19.4688 103.157 19.5664 103.614 19.7617C104.071 19.957 104.421 20.2461 104.663 20.6289C104.909 21.0078 105.032 21.4766 105.032 22.0352C105.032 22.4609 104.954 22.8359 104.798 23.1602C104.642 23.4844 104.421 23.7578 104.136 23.9805C103.851 24.1992 103.511 24.3691 103.116 24.4902L102.671 24.707H99.958L99.9463 23.541H101.979C102.331 23.541 102.624 23.4785 102.858 23.3535C103.093 23.2285 103.269 23.0586 103.386 22.8438C103.507 22.625 103.567 22.3789 103.567 22.1055C103.567 21.8086 103.509 21.5508 103.392 21.332C103.278 21.1094 103.103 20.9395 102.864 20.8223C102.626 20.7012 102.323 20.6406 101.956 20.6406H100.409V28H98.9385V19.4688ZM103.808 28L101.804 24.168L103.345 24.1621L105.378 27.9238V28H103.808Z" fill="white"/>
</svg>
