<svg width="99" height="17" viewBox="0 0 99 17" fill="none" xmlns="http://www.w3.org/2000/svg">
<g clip-path="url(#clip0_2119_3816)">
<path d="M97.1883 1.292C95.9267 0.433142 94.0173 -7.03378e-06 91.5146 -7.03378e-06H84.9601L82.5234 13.1453H73.9368L74.4886 10.1629H79.6611L80.274 6.81321L75.1045 6.8206L75.6579 3.85152H80.9858L81.6946 0.000760298H70.8749L68.5617 12.4699H64.5911L66.92 0.000104459H61.2642L58.9509 12.4692H55.083L57.4141 0.000104459H51.7612L49.3215 13.1454H40.6731L41.2199 10.163H46.4131L47.0267 6.83234L41.8385 6.82717L42.3889 3.85218H47.7765L48.4809 -0.000213623H14.7648L12.8457 10.4165L9.02401 -0.000213623H3.15595L-0.00231934 16.9998H5.60174L7.51336 6.29584L11.2219 16.9998H31.3064L33.7483 3.85054H36.8895L34.4475 16.9998H87.2937L88.826 8.69949L91.3044 16.9998H96.9114L94.343 10.2174L94.9307 10.0918C96.2249 9.81608 97.2343 9.22404 97.9371 8.33636C98.6393 7.44055 98.9971 6.29044 98.9971 4.90894C98.9971 3.3006 98.405 2.11727 97.1867 1.29101L97.1883 1.292ZM26.4297 13.1453H17.8513L18.4054 10.1629H23.7861L24.396 6.8037H19.0672L19.5804 3.85236H28.1462L26.428 13.1453L26.4297 13.1453ZM92.5683 7.41917C92.0044 7.8109 91.187 8.00159 90.069 8.00159H88.9607L89.8109 3.43957H90.6261C91.5544 3.43957 92.2313 3.5874 92.6984 3.88895C93.0629 4.12548 93.4965 4.59336 93.4965 5.47808C93.4952 6.54835 92.9907 7.12339 92.5667 7.41904L92.5683 7.41917Z" fill="#83BA3B"/>
</g>
<defs>
<clipPath id="clip0_2119_3816">
<rect width="99" height="17" fill="white"/>
</clipPath>
</defs>
</svg>
