<svg width="36" height="30" viewBox="0 0 36 30" fill="none" xmlns="http://www.w3.org/2000/svg"><path d="M31.2858 12.3451L29.5997 9.9847L27.5765 9.6475L27.9137 9.31029L27.2393 8.29868L22.5184 8.97309L18.4652 12.7127L18.472 12.6823L17.7976 8.97309L14.7627 7.62427L10.0418 8.97309L7.007 14.0312L6.6698 20.7753L9.70464 27.8566L14.0883 29.5426L19.4836 28.1938L20.4952 25.4961L18.1348 21.4497L17.7976 16.7288L18.1483 14.6213L18.1988 20.5122L20.8324 25.8333L25.5533 27.5194L29.2625 25.4961L31.623 22.7985L31.2858 12.3451Z" fill="#C5C5C5"/><path d="M17.7976 8.97308L18.472 12.6823L17.7976 16.7288L18.1348 21.4497L20.4952 25.4961L19.4836 28.1938L14.0883 29.5426L9.70464 27.8566L8.08269 24.1035L6.6698 20.7753L7.007 14.0312L7.34421 20.438L9.03023 24.8217H9.70464L11.3907 26.8449L14.7627 27.8566L17.1232 27.5194L18.8092 26.1705V24.8217L18.472 23.1357L17.1232 20.1008L16.7859 16.3916L17.1232 13.3567L16.7859 11.3335L15.7743 9.98469L16.6544 8.48413L17.7976 8.97308ZM29.5997 9.98469L28.9253 11.6707L29.9369 12.6823V22.1241L28.5881 24.1473L25.2161 25.8333L22.5184 24.8217L21.844 24.1473L19.8208 20.7753L18.1988 18.1316V20.5122L20.8324 25.8333L25.5533 27.5194L29.2625 25.4961L31.623 22.7985L31.2858 12.3451L29.5997 9.98469Z" fill="#AAAAAA"/><path d="M18.1989 20.5123L20.8324 25.8334L22.0497 26.3223L21.1696 25.159L20.4952 22.7985L18.8092 20.1009V14.3684L18.2798 13.8356L18.472 12.6824L17.1232 15.7172L17.4604 19.4265L18.1348 22.1241L19.8208 25.8334L19.4836 28.1938L20.4952 25.4962L18.1348 21.4497L17.7976 16.7288L18.1449 14.6483L18.1989 20.5123Z" fill="#9E9E9E"/><path d="M17.4604 21.1124L13.7511 19.7636L15.1 18.752L15.7744 16.3915L13.0767 15.3799L9.36748 15.7171L9.03027 17.7404L9.70468 17.4031L11.3907 23.4728L13.0767 23.1356L12.7395 21.1124L16.786 22.4612L17.4604 21.1124ZM12.0651 19.0892L11.7279 16.7287L13.7511 17.0659L13.4139 17.7404L12.0651 19.0892ZM27.2393 13.6939L26.9021 14.3683L24.5417 15.7171L24.2045 17.0659L26.2277 17.7404L26.9021 19.0892L26.2277 20.7752L24.2045 22.4612L22.5185 21.7868L22.8557 21.4496L24.8789 19.7636L23.1929 18.4148L22.5185 17.0659L22.8557 15.0427L25.5533 13.3567L27.2393 13.6939Z" fill="#4D4D4D"/><path d="M23.193 10.6591L20.1582 13.694V19.7636L21.8442 24.1473L19.821 20.7753L19.4838 16.0544V13.3568L18.1349 13.0195L22.5186 8.97309L27.2395 8.29868L26.2279 9.9847L23.193 10.6591ZM8.69321 19.0892L8.356 15.7172L9.36762 13.0195L10.3792 11.3335L11.7281 9.6475L11.2088 9.43843L14.7629 7.62427L10.042 8.97309L8.78088 11.0503L8.0188 13.3568L8.356 20.1009L9.03041 23.1357L8.69321 19.0892ZM28.2511 12.0079V10.9963L27.2395 10.6591L28.2511 12.0079ZM27.5767 14.3684L27.2395 13.694L26.9023 14.3684L24.5418 15.7172L24.2046 17.066L25.2163 16.0544L27.2395 15.0428L27.5767 14.3684ZM23.193 18.4148L22.5186 17.066V18.4148L23.8674 19.7636H24.879L23.193 18.4148ZM22.5186 21.7869H22.1814V22.4613L23.193 22.7985H24.5418L26.2279 21.7869L27.2395 20.1009L26.2279 20.7753L24.2046 22.4613L22.5186 21.7869ZM11.3908 23.4729L11.2593 23.0244L11.0469 23.4729V23.8101L11.7213 24.1473L13.4073 23.4729L13.1005 23.1896L11.3908 23.4729ZM12.7397 21.1125L13.7513 22.1241L16.7861 23.1357L17.7977 21.7869L16.7861 22.4613L12.7397 21.1125ZM13.7513 19.7636L15.1001 19.4264L15.7745 18.4148L15.1001 18.752L13.7513 19.7636ZM11.7281 16.7288L12.4025 17.4032H13.4141L13.7513 17.066L11.7281 16.7288Z" fill="#F5F5F5"/><path d="M33.8756 4.27923L33.6497 3.75319L34.024 0.617188L32.4054 1.57148L28.8142 2.16159L26.4908 2.52577L26.0963 3.10913L26.3256 4.66365H22.4275L17.7066 4.11063L17.2379 4.06005L16.7152 4.12749L8.40989 3.5711L5.429 3.89145L4.55901 4.32644L4.13413 5.20317L4.3668 6.71048L2.69764 7.04769L0 8.21442V8.59546L2.10753 10.2039L2.35706 10.8075L2.01986 13.8424L3.79356 12.851L9.32709 12.0822L9.86324 11.4988L9.88685 11.4819L9.85313 11.4347L9.7958 11.0402V11.0132L9.63057 9.85323L9.40802 9.80939L17.6662 10.2849L22.7242 10.9019H28.7939L30.4024 10.6355L31.7512 9.79253L31.8558 9.31033L31.6265 7.8064L33.3125 7.4928L35.9427 6.32607L36 5.93154L33.8756 4.27923Z" fill="#D3160C"/><path d="M8.41013 3.5711L7.99199 4.32644L8.72373 8.66626L8.60233 9.19905L9.40151 9.78916L9.62407 9.83299L9.85337 11.428V11.4617L9.88034 11.492L9.32733 12.0822L3.78705 12.8577L3.90844 12.4767L2.92718 7.36128L2.69788 7.05442L4.36704 6.71722L5.04145 10.7637L5.2168 10.9087L5.53377 10.2343L4.55925 4.32644L5.42924 3.88133L8.41013 3.56098V3.5711ZM7.32433 11.2425L9.415 11.165L9.51279 10.9559L8.0392 10.6929L7.32433 11.2425ZM26.3326 4.71085L26.0965 3.10913L26.4776 2.52576L26.69 2.74495L28.376 2.55948L28.8009 2.16158L32.3921 1.58496L32.0752 2.61344L33.3195 7.4793L31.6334 7.7929L31.0029 3.81051L30.8073 3.53401L30.7365 3.84761L31.7481 9.77904L30.3993 10.6221L28.7942 10.8884L27.732 5.08852L27.3206 4.66364L26.3326 4.70073V4.71085ZM28.3153 3.36203L30.3757 3.17994L30.5308 2.91018L30.1936 2.76181L28.3288 3.36203H28.3153ZM29.0235 2.20542L29.5293 2.26274L29.0235 2.20542ZM17.6664 10.2848L17.4506 9.72172L18.125 9.65765L17.9024 9.3373L18.2194 8.93603L16.992 4.35004L17.6866 4.09714L22.4075 4.65015L22.6267 4.8491H22.7548L22.7144 4.93678L23.3989 10.0589L22.7245 10.9019L17.6664 10.2848ZM18.1115 9.88695L18.0508 9.93753L18.1216 9.96113L18.1857 9.9173L18.1115 9.88695ZM16.992 4.35004L17.2179 4.04656L16.6953 4.114L16.5873 4.28597L16.992 4.34667V4.35004ZM22.7818 5.04806V5.07503H22.8155V5.0312H22.7885L22.7818 5.04806Z" fill="#A60201"/><path d="M13.1507 1.57137L17.7064 2.80892L19.9926 6.85538L18.9203 10.7872L14.3748 13.3567L9.3774 11.8359L7.98474 7.98501L9.01322 3.57437L13.1507 1.57137ZM13.3294 2.39753L11.2017 4.05995L11.0971 7.7692L12.3145 11.8595L14.2938 12.6587L15.5584 12.018L16.779 10.396L16.5902 7.31398L16.1417 3.96216L14.8165 2.58299L13.3294 2.39753ZM27.8832 0.215811L28.153 3.9689L27.7045 4.07344L26.3557 1.95916L24.3324 1.05545L23.1488 1.85126L22.5453 2.86287L22.8487 3.53728L23.5838 4.46122L25.6071 5.00412L28.2204 6.7677L29.0735 8.48408L28.1395 10.7332L25.7386 12.3114L24.7641 11.9337L23.5265 11.8831L22.8184 11.6235L22.5655 12.2473L22.0664 12.6013L21.4965 12.6654L21.3077 8.39303L21.9821 8.18396L23.5265 10.686L25.6846 12.0079L27.2695 11.2053L27.782 9.77894L27.4954 8.85837L26.7097 8.10303L24.8855 7.76583L22.6329 6.56538L21.5336 5.4897L20.7648 4.14088L21.8675 1.87486L24.12 0.650806L25.1586 0.751967L26.1702 0.8565L26.9964 1.43312L27.0941 0.758711L27.2425 0L27.8832 0.215811Z" fill="#F5C81D"/><path d="M19.9932 6.83852L18.9209 10.7872L14.3754 13.3567L17.798 10.3219L18.4724 6.9498L17.4608 4.25216L16.4492 2.90334L17.7069 2.80893L19.9932 6.83852ZM27.8838 0.21582L27.5769 1.90184L28.1536 3.97903L27.8838 0.21582ZM26.3495 1.96591L24.2049 0.886858L22.8561 1.89847L22.1817 3.24729L22.5189 4.59611L25.2165 5.27052L26.5653 6.95655L28.2513 8.30537V9.99139L25.7392 12.3114L28.1401 10.7332L29.0573 8.48409L28.2041 6.76771L25.5908 5.00076L23.5676 4.45786L22.8257 3.53054L22.5222 2.85613L23.1258 1.84452L24.3094 1.05546L26.3495 1.96591Z" fill="#E4BA1B"/><path d="M11.2018 4.06007L11.0973 7.76933L12.3146 11.8596L14.294 12.6588L12.7496 12.3452L10.7264 11.3336L9.37756 7.62433L10.052 3.91508L13.3397 2.39765L11.2018 4.06007ZM22.5656 12.2407L22.8186 11.6168L23.5267 11.8765L24.7642 11.9271L25.7387 12.3047L25.2161 12.008L22.8556 11.3336L21.5068 12.6588L22.0767 12.5947L22.5656 12.2407ZM20.765 4.14775L21.5338 5.49657L22.6331 6.57225L24.8856 7.7727L26.7099 8.10991L27.5057 8.86524L27.7822 9.77907L27.5664 10.322L28.0655 9.74535L27.9036 8.63594L26.5548 7.62433L22.5083 5.9383L21.4967 4.25228L21.8575 1.89185L20.765 4.14775Z" fill="#B29215"/></svg>